<?xml version="1.0" encoding="UTF-8"?>
<!--Generator: Apple Native CoreSVG 336-->
<!DOCTYPE svg
PUBLIC "-//W3C//DTD SVG 1.1//EN"
       "http://www.w3.org/Graphics/SVG/1.1/DTD/svg11.dtd">
<svg version="1.1" xmlns="http://www.w3.org/2000/svg" xmlns:xlink="http://www.w3.org/1999/xlink" viewBox="0 0 3300 2200">
 <!--glyph: "", point size: 100.0, font version: "20.0d8e1", template writer version: "138.0.0"-->
 <style>.monochrome-0 {-sfsymbols-motion-group:1;-sfsymbols-layer-tags:6cc656efb0248f2b}
.monochrome-1 {opacity:0.0;-sfsymbols-clear-behind:true;-sfsymbols-motion-group:1;-sfsymbols-layer-tags:6cc656efb0248f2b}
.monochrome-2 {-sfsymbols-motion-group:0;-sfsymbols-layer-tags:6cc656efb0248f2b}
.monochrome-3 {-sfsymbols-motion-group:0;-sfsymbols-layer-tags:6cc656efb0248f2b}
.monochrome-4 {-sfsymbols-motion-group:0;-sfsymbols-layer-tags:6cc656efb0248f2b}

.multicolor-0:white {-sfsymbols-motion-group:1;-sfsymbols-layer-tags:6cc656efb0248f2b}
.multicolor-1:custom {fill:#009FDF;-sfsymbols-motion-group:1;-sfsymbols-layer-tags:6cc656efb0248f2b}
.multicolor-2:white {-sfsymbols-motion-group:0;-sfsymbols-layer-tags:6cc656efb0248f2b}
.multicolor-3:custom {fill:#007096;-sfsymbols-motion-group:0;-sfsymbols-layer-tags:6cc656efb0248f2b}
.multicolor-4:custom {fill:#3E4545;-sfsymbols-motion-group:0;-sfsymbols-layer-tags:6cc656efb0248f2b}

.hierarchical-0:tertiary {-sfsymbols-motion-group:1;-sfsymbols-layer-tags:6cc656efb0248f2b}
.hierarchical-1:tertiary {-sfsymbols-motion-group:1;-sfsymbols-layer-tags:6cc656efb0248f2b}
.hierarchical-2:secondary {-sfsymbols-motion-group:0;-sfsymbols-layer-tags:6cc656efb0248f2b}
.hierarchical-3:primary {-sfsymbols-motion-group:0;-sfsymbols-layer-tags:6cc656efb0248f2b}
.hierarchical-4:primary {-sfsymbols-motion-group:0;-sfsymbols-layer-tags:6cc656efb0248f2b}

.SFSymbolsPreviewWireframe {fill:none;opacity:1.0;stroke:black;stroke-width:0.5}
</style>
 <g id="Notes">
  <rect height="2200" id="artboard" style="fill:white;opacity:1" width="3300" x="0" y="0"/>
  <line style="fill:none;stroke:black;opacity:1;stroke-width:0.5;" x1="263" x2="3036" y1="292" y2="292"/>
  <text style="stroke:none;fill:black;font-family:sans-serif;font-size:13;font-weight:bold;" transform="matrix(1 0 0 1 263 322)">Weight/Scale Variations</text>
  <text style="stroke:none;fill:black;font-family:sans-serif;font-size:13;text-anchor:middle;" transform="matrix(1 0 0 1 559.711 322)">Ultralight</text>
  <text style="stroke:none;fill:black;font-family:sans-serif;font-size:13;text-anchor:middle;" transform="matrix(1 0 0 1 856.422 322)">Thin</text>
  <text style="stroke:none;fill:black;font-family:sans-serif;font-size:13;text-anchor:middle;" transform="matrix(1 0 0 1 1153.13 322)">Light</text>
  <text style="stroke:none;fill:black;font-family:sans-serif;font-size:13;text-anchor:middle;" transform="matrix(1 0 0 1 1449.84 322)">Regular</text>
  <text style="stroke:none;fill:black;font-family:sans-serif;font-size:13;text-anchor:middle;" transform="matrix(1 0 0 1 1746.56 322)">Medium</text>
  <text style="stroke:none;fill:black;font-family:sans-serif;font-size:13;text-anchor:middle;" transform="matrix(1 0 0 1 2043.27 322)">Semibold</text>
  <text style="stroke:none;fill:black;font-family:sans-serif;font-size:13;text-anchor:middle;" transform="matrix(1 0 0 1 2339.98 322)">Bold</text>
  <text style="stroke:none;fill:black;font-family:sans-serif;font-size:13;text-anchor:middle;" transform="matrix(1 0 0 1 2636.69 322)">Heavy</text>
  <text style="stroke:none;fill:black;font-family:sans-serif;font-size:13;text-anchor:middle;" transform="matrix(1 0 0 1 2933.4 322)">Black</text>
  <line style="fill:none;stroke:black;opacity:1;stroke-width:0.5;" x1="263" x2="3036" y1="1903" y2="1903"/>
  <g transform="matrix(0.2 0 0 0.2 263 1933)">
   <path d="m46.2402 4.15039c21.7773 0 39.4531-17.627 39.4531-39.4043s-17.6758-39.4043-39.4531-39.4043c-21.7285 0-39.4043 17.627-39.4043 39.4043s17.6758 39.4043 39.4043 39.4043Zm0-7.42188c-17.6758 0-31.9336-14.3066-31.9336-31.9824s14.2578-31.9824 31.9336-31.9824 31.9824 14.3066 31.9824 31.9824-14.3066 31.9824-31.9824 31.9824Zm-17.9688-31.9824c0 2.14844 1.51367 3.61328 3.75977 3.61328h10.498v10.5957c0 2.19727 1.46484 3.71094 3.61328 3.71094 2.24609 0 3.71094-1.51367 3.71094-3.71094v-10.5957h10.5957c2.19727 0 3.71094-1.46484 3.71094-3.61328 0-2.19727-1.51367-3.71094-3.71094-3.71094h-10.5957v-10.5469c0-2.24609-1.46484-3.75977-3.71094-3.75977-2.14844 0-3.61328 1.51367-3.61328 3.75977v10.5469h-10.498c-2.24609 0-3.75977 1.51367-3.75977 3.71094Z"/>
  </g>
  <g transform="matrix(0.2 0 0 0.2 281.506 1933)">
   <path d="m58.5449 14.5508c27.4902 0 49.8047-22.3145 49.8047-49.8047s-22.3145-49.8047-49.8047-49.8047-49.8047 22.3145-49.8047 49.8047 22.3145 49.8047 49.8047 49.8047Zm0-8.30078c-22.9492 0-41.5039-18.5547-41.5039-41.5039s18.5547-41.5039 41.5039-41.5039 41.5039 18.5547 41.5039 41.5039-18.5547 41.5039-41.5039 41.5039Zm-22.6562-41.5039c0 2.39258 1.66016 4.00391 4.15039 4.00391h14.3555v14.4043c0 2.44141 1.66016 4.15039 4.05273 4.15039 2.44141 0 4.15039-1.66016 4.15039-4.15039v-14.4043h14.4043c2.44141 0 4.15039-1.61133 4.15039-4.00391 0-2.44141-1.70898-4.15039-4.15039-4.15039h-14.4043v-14.3555c0-2.49023-1.70898-4.19922-4.15039-4.19922-2.39258 0-4.05273 1.70898-4.05273 4.19922v14.3555h-14.3555c-2.49023 0-4.15039 1.70898-4.15039 4.15039Z"/>
  </g>
  <g transform="matrix(0.2 0 0 0.2 304.924 1933)">
   <path d="m74.8535 28.3203c35.1074 0 63.623-28.4668 63.623-63.5742s-28.5156-63.623-63.623-63.623-63.5742 28.5156-63.5742 63.623 28.4668 63.5742 63.5742 63.5742Zm0-9.08203c-30.127 0-54.4922-24.3652-54.4922-54.4922s24.3652-54.4922 54.4922-54.4922 54.4922 24.3652 54.4922 54.4922-24.3652 54.4922-54.4922 54.4922Zm-28.8574-54.4922c0 2.58789 1.85547 4.39453 4.58984 4.39453h19.7266v19.7754c0 2.68555 1.85547 4.58984 4.44336 4.58984 2.68555 0 4.54102-1.85547 4.54102-4.58984v-19.7754h19.7754c2.68555 0 4.58984-1.80664 4.58984-4.39453 0-2.73438-1.85547-4.58984-4.58984-4.58984h-19.7754v-19.7266c0-2.73438-1.85547-4.63867-4.54102-4.63867-2.58789 0-4.44336 1.9043-4.44336 4.63867v19.7266h-19.7266c-2.73438 0-4.58984 1.85547-4.58984 4.58984Z"/>
  </g>
  <text style="stroke:none;fill:black;font-family:sans-serif;font-size:13;font-weight:bold;" transform="matrix(1 0 0 1 263 1953)">Design Variations</text>
  <text style="stroke:none;fill:black;font-family:sans-serif;font-size:13;" transform="matrix(1 0 0 1 263 1971)">Symbols are supported in up to nine weights and three scales.</text>
  <text style="stroke:none;fill:black;font-family:sans-serif;font-size:13;" transform="matrix(1 0 0 1 263 1989)">For optimal layout with text and other symbols, vertically align</text>
  <text style="stroke:none;fill:black;font-family:sans-serif;font-size:13;" transform="matrix(1 0 0 1 263 2007)">symbols with the adjacent text.</text>
  <line style="fill:none;stroke:#00AEEF;stroke-width:0.5;opacity:1.0;" x1="776" x2="776" y1="1919" y2="1933"/>
  <g transform="matrix(0.2 0 0 0.2 776 1933)">
   <path d="m16.5527 0.78125c2.58789 0 3.85742-0.976562 4.78516-3.71094l6.29883-17.2363h28.8086l6.29883 17.2363c0.927734 2.73438 2.19727 3.71094 4.73633 3.71094 2.58789 0 4.24805-1.5625 4.24805-4.00391 0-0.830078-0.146484-1.61133-0.537109-2.63672l-22.9004-60.9863c-1.12305-2.97852-3.125-4.49219-6.25-4.49219-3.02734 0-5.07812 1.46484-6.15234 4.44336l-22.9004 61.084c-0.390625 1.02539-0.537109 1.80664-0.537109 2.63672 0 2.44141 1.5625 3.95508 4.10156 3.95508Zm13.4766-28.3691 11.8652-32.8613h0.244141l11.8652 32.8613Z"/>
  </g>
  <line style="fill:none;stroke:#00AEEF;stroke-width:0.5;opacity:1.0;" x1="792.836" x2="792.836" y1="1919" y2="1933"/>
  <text style="stroke:none;fill:black;font-family:sans-serif;font-size:13;font-weight:bold;" transform="matrix(1 0 0 1 776 1953)">Margins</text>
  <text style="stroke:none;fill:black;font-family:sans-serif;font-size:13;" transform="matrix(1 0 0 1 776 1971)">Leading and trailing margins on the left and right side of each symbol</text>
  <text style="stroke:none;fill:black;font-family:sans-serif;font-size:13;" transform="matrix(1 0 0 1 776 1989)">can be adjusted by modifying the x-location of the margin guidelines.</text>
  <text style="stroke:none;fill:black;font-family:sans-serif;font-size:13;" transform="matrix(1 0 0 1 776 2007)">Modifications are automatically applied proportionally to all</text>
  <text style="stroke:none;fill:black;font-family:sans-serif;font-size:13;" transform="matrix(1 0 0 1 776 2025)">scales and weights.</text>
  <g transform="matrix(0.2 0 0 0.2 1289 1933)">
   <path d="m14.209 9.32617 8.49609 8.54492c4.29688 4.3457 9.22852 4.05273 13.8672-1.07422l53.4668-58.9355-4.83398-4.88281-53.0762 58.3984c-1.75781 2.00195-3.41797 2.49023-5.76172 0.146484l-5.85938-5.81055c-2.34375-2.29492-1.80664-4.00391 0.195312-5.81055l57.373-54.0039-4.88281-4.83398-57.959 54.4434c-4.93164 4.58984-5.32227 9.47266-1.02539 13.8184Zm32.0801-90.9668c-2.09961 2.05078-2.24609 4.93164-1.07422 6.88477 1.17188 1.80664 3.4668 2.97852 6.68945 2.14844 7.32422-1.70898 14.9414-2.00195 22.0703 2.68555l-2.92969 7.27539c-1.70898 4.15039-0.830078 7.08008 1.85547 9.81445l11.4746 11.5723c2.44141 2.44141 4.49219 2.53906 7.32422 2.05078l5.32227-0.976562 3.32031 3.36914-0.195312 2.7832c-0.195312 2.49023 0.439453 4.39453 2.88086 6.78711l3.80859 3.71094c2.39258 2.39258 5.46875 2.53906 7.8125 0.195312l14.5508-14.5996c2.34375-2.34375 2.24609-5.32227-0.146484-7.71484l-3.85742-3.80859c-2.39258-2.39258-4.24805-3.17383-6.64062-2.97852l-2.88086 0.244141-3.22266-3.17383 1.2207-5.61523c0.634766-2.83203-0.146484-5.0293-3.07617-7.95898l-10.9863-10.9375c-16.6992-16.6016-38.8672-16.2109-53.3203-1.75781Zm7.4707 1.85547c12.1582-8.88672 28.6133-7.37305 39.7461 3.75977l12.1582 12.0605c1.17188 1.17188 1.36719 2.09961 1.02539 3.80859l-1.61133 7.42188 7.51953 7.42188 4.93164-0.292969c1.26953-0.0488281 1.66016 0.0488281 2.63672 1.02539l2.88086 2.88086-12.207 12.207-2.88086-2.88086c-0.976562-0.976562-1.12305-1.36719-1.07422-2.68555l0.341797-4.88281-7.4707-7.42188-7.61719 1.26953c-1.61133 0.341797-2.34375 0.195312-3.56445-0.976562l-10.0098-10.0098c-1.26953-1.17188-1.41602-2.00195-0.634766-3.85742l4.39453-10.4492c-7.8125-7.27539-17.9688-10.4004-28.125-7.42188-0.78125 0.195312-1.07422-0.439453-0.439453-0.976562Z"/>
  </g>
  <text style="stroke:none;fill:black;font-family:sans-serif;font-size:13;font-weight:bold;" transform="matrix(1 0 0 1 1289 1953)">Exporting</text>
  <text style="stroke:none;fill:black;font-family:sans-serif;font-size:13;" transform="matrix(1 0 0 1 1289 1971)">Symbols should be outlined when exporting to ensure the</text>
  <text style="stroke:none;fill:black;font-family:sans-serif;font-size:13;" transform="matrix(1 0 0 1 1289 1989)">design is preserved when submitting to Xcode.</text>
  <text id="template-version" style="stroke:none;fill:black;font-family:sans-serif;font-size:13;text-anchor:end;" transform="matrix(1 0 0 1 3036 1933)">Template v.6.0</text>
  <text style="stroke:none;fill:black;font-family:sans-serif;font-size:13;text-anchor:end;" transform="matrix(1 0 0 1 3036 1951)">Requires Xcode 16 or greater</text>
  <text id="descriptive-name" style="stroke:none;fill:black;font-family:sans-serif;font-size:13;text-anchor:end;" transform="matrix(1 0 0 1 3036 1969)">Generated from vevox.logo</text>
  <text style="stroke:none;fill:black;font-family:sans-serif;font-size:13;text-anchor:end;" transform="matrix(1 0 0 1 3036 1987)">Typeset at 100.0 points</text>
  <text style="stroke:none;fill:black;font-family:sans-serif;font-size:13;" transform="matrix(1 0 0 1 263 726)">Small</text>
  <text style="stroke:none;fill:black;font-family:sans-serif;font-size:13;" transform="matrix(1 0 0 1 263 1156)">Medium</text>
  <text style="stroke:none;fill:black;font-family:sans-serif;font-size:13;" transform="matrix(1 0 0 1 263 1586)">Large</text>
 </g>
 <g id="Guides">
  <g id="H-reference" style="fill:#27AAE1;stroke:none;" transform="matrix(1 0 0 1 339 696)">
   <path d="M0.993654 0L3.63775 0L29.3281-67.1323L30.0303-67.1323L30.0303-70.459L28.1226-70.459ZM11.6885-24.4799L46.9815-24.4799L46.2315-26.7285L12.4385-26.7285ZM55.1196 0L57.7637 0L30.6382-70.459L29.4326-70.459L29.4326-67.1323Z"/>
  </g>
  <line id="Baseline-S" style="fill:none;stroke:#27AAE1;opacity:1;stroke-width:0.5;" x1="263" x2="3036" y1="696" y2="696"/>
  <line id="Capline-S" style="fill:none;stroke:#27AAE1;opacity:1;stroke-width:0.5;" x1="263" x2="3036" y1="625.541" y2="625.541"/>
  <g id="H-reference" style="fill:#27AAE1;stroke:none;" transform="matrix(1 0 0 1 339 1126)">
   <path d="M0.993654 0L3.63775 0L29.3281-67.1323L30.0303-67.1323L30.0303-70.459L28.1226-70.459ZM11.6885-24.4799L46.9815-24.4799L46.2315-26.7285L12.4385-26.7285ZM55.1196 0L57.7637 0L30.6382-70.459L29.4326-70.459L29.4326-67.1323Z"/>
  </g>
  <line id="Baseline-M" style="fill:none;stroke:#27AAE1;opacity:1;stroke-width:0.5;" x1="263" x2="3036" y1="1126" y2="1126"/>
  <line id="Capline-M" style="fill:none;stroke:#27AAE1;opacity:1;stroke-width:0.5;" x1="263" x2="3036" y1="1055.54" y2="1055.54"/>
  <g id="H-reference" style="fill:#27AAE1;stroke:none;" transform="matrix(1 0 0 1 339 1556)">
   <path d="M0.993654 0L3.63775 0L29.3281-67.1323L30.0303-67.1323L30.0303-70.459L28.1226-70.459ZM11.6885-24.4799L46.9815-24.4799L46.2315-26.7285L12.4385-26.7285ZM55.1196 0L57.7637 0L30.6382-70.459L29.4326-70.459L29.4326-67.1323Z"/>
  </g>
  <line id="Baseline-L" style="fill:none;stroke:#27AAE1;opacity:1;stroke-width:0.5;" x1="263" x2="3036" y1="1556" y2="1556"/>
  <line id="Capline-L" style="fill:none;stroke:#27AAE1;opacity:1;stroke-width:0.5;" x1="263" x2="3036" y1="1485.54" y2="1485.54"/>
  <line id="right-margin-Black-S" style="fill:none;stroke:#00AEEF;stroke-width:0.5;opacity:1.0;" x1="2981.3" x2="2981.3" y1="600.785" y2="720.121"/>
  <line id="left-margin-Black-S" style="fill:none;stroke:#00AEEF;stroke-width:0.5;opacity:1.0;" x1="2885.5" x2="2885.5" y1="600.785" y2="720.121"/>
  <line id="right-margin-Regular-S" style="fill:none;stroke:#00AEEF;stroke-width:0.5;opacity:1.0;" x1="1495.18" x2="1495.18" y1="600.785" y2="720.121"/>
  <line id="left-margin-Regular-S" style="fill:none;stroke:#00AEEF;stroke-width:0.5;opacity:1.0;" x1="1404.51" x2="1404.51" y1="600.785" y2="720.121"/>
  <line id="right-margin-Ultralight-S" style="fill:none;stroke:#00AEEF;stroke-width:0.5;opacity:1.0;" x1="603.073" x2="603.073" y1="600.785" y2="720.121"/>
  <line id="left-margin-Ultralight-S" style="fill:none;stroke:#00AEEF;stroke-width:0.5;opacity:1.0;" x1="516.35" x2="516.35" y1="600.785" y2="720.121"/>
 </g>
 <g id="Symbols">
  <g id="Black-S" transform="matrix(1 0 0 1 2885.5 696)">
   <path class="monochrome-0 multicolor-0:white hierarchical-0:tertiary SFSymbolsPreviewWireframe" d="M48.3203-70C35.7809-70.0031 24.188-63.3293 17.8922-52.4831C11.5963-41.637 11.5497-28.2587 17.7697-17.3689L12.5 1L30.8589-4.26379C43.683 3.06741 59.7201 1.60587 71.0082-7.92276C82.2962-17.4514 86.4311-33.0178 81.3599-46.8934C76.2886-60.769 63.0914-69.9987 48.3203-70Z"/>
   <path class="monochrome-0 monochrome-1 multicolor-0:white multicolor-1:custom hierarchical-0:tertiary hierarchical-1:tertiary SFSymbolsPreviewWireframe" d="M48.306-68.8C36.088-68.7902 24.8143-62.2279 18.7738-51.6094C12.7333-40.9909 12.8546-27.9486 19.0915-17.4443L14.3-0.827589L30.8991-5.58401C43.2298 1.75412 58.8405 0.563795 69.9155-8.55904C80.9905-17.6819 85.1461-32.7736 80.3017-46.2784C75.4573-59.7832 62.6556-68.7942 48.306-68.8Z"/>
   <path class="monochrome-0 monochrome-2 multicolor-0:white multicolor-2:white hierarchical-0:tertiary hierarchical-2:secondary SFSymbolsPreviewWireframe" d="M33.1435-46C30.0267-46 27.5-48.4624 27.5-51.5C27.5-54.5376 30.0267-57 33.1435-57L53.8565-57C56.9733-57 59.5-54.5376 59.5-51.5C59.5-48.4624 56.9733-46 53.8565-46L33.1435-46ZM33.3499-29.0033C31.2845-28.9335 29.3445-29.9656 28.2905-31.695C27.2365-33.4244 27.2365-35.5756 28.2905-37.305C29.3445-39.0344 31.2845-40.0665 33.3499-39.9967L44.6501-39.9967C46.7155-40.0665 48.6555-39.0344 49.7095-37.305C50.7635-35.5756 50.7635-33.4244 49.7095-31.695C48.6555-29.9656 46.7155-28.9335 44.6501-29.0033L33.3499-29.0033ZM33.0891-12C30.0023-12 27.5-14.4624 27.5-17.5C27.5-20.5376 30.0023-23 33.0891-23L62.9109-23C65.9977-23 68.5-20.5376 68.5-17.5C68.5-14.4624 65.9977-12 62.9109-12L33.0891-12Z"/>
   <path class="monochrome-0 monochrome-3 multicolor-0:white multicolor-3:custom hierarchical-0:tertiary hierarchical-3:primary SFSymbolsPreviewWireframe" d="M54-46C57.0376-46 59.5-48.4624 59.5-51.5C59.5-54.5376 57.0376-57 54-57C50.9624-57 48.5-54.5376 48.5-51.5C48.5-48.4624 50.9624-46 54-46ZM45-29C48.0376-29 50.5-31.4624 50.5-34.5C50.5-37.5376 48.0376-40 45-40C41.9624-40 39.5-37.5376 39.5-34.5C39.5-31.4624 41.9624-29 45-29Z"/>
   <path class="monochrome-0 monochrome-4 multicolor-0:white multicolor-4:custom hierarchical-0:tertiary hierarchical-4:primary SFSymbolsPreviewWireframe" d="M63-12C66.0376-12 68.5-14.4624 68.5-17.5C68.5-20.5376 66.0376-23 63-23C59.9624-23 57.5-20.5376 57.5-17.5C57.5-14.4624 59.9624-12 63-12Z"/>
  </g>
  <g id="Regular-S" transform="matrix(1 0 0 1 1404.51 696)">
   <path class="monochrome-0 multicolor-0:white hierarchical-0:tertiary SFSymbolsPreviewWireframe" d="M45.3103-70.5C32.7709-70.5031 21.178-63.8293 14.8822-52.9831C8.58634-42.137 8.53967-28.7587 14.7597-17.8689L9.49 0.500001L27.8489-4.76379C40.673 2.56741 56.7101 1.10587 67.9982-8.42276C79.2862-17.9514 83.4211-33.5178 78.3499-47.3934C73.2786-61.269 60.0814-70.4987 45.3103-70.5Z"/>
   <path class="monochrome-0 monochrome-1 multicolor-0:white multicolor-1:custom hierarchical-0:tertiary hierarchical-1:tertiary SFSymbolsPreviewWireframe" d="M45.296-69.3C33.078-69.2902 21.8043-62.7279 15.7638-52.1094C9.72333-41.4909 9.8446-28.4486 16.0815-17.9443L11.29-1.32759L27.8891-6.08401C40.2198 1.25412 55.8305 0.0637954 66.9055-9.05904C77.9805-18.1819 82.1361-33.2736 77.2917-46.7784C72.4473-60.2832 59.6456-69.2942 45.296-69.3Z"/>
   <path class="monochrome-0 monochrome-2 multicolor-0:white multicolor-2:white hierarchical-0:tertiary hierarchical-2:secondary SFSymbolsPreviewWireframe" d="M30.1335-46.5C27.0167-46.5 24.49-48.9624 24.49-52C24.49-55.0376 27.0167-57.5 30.1335-57.5L50.8465-57.5C53.9633-57.5 56.49-55.0376 56.49-52C56.49-48.9624 53.9633-46.5 50.8465-46.5L30.1335-46.5ZM30.3399-29.5033C28.2745-29.4335 26.3345-30.4656 25.2805-32.195C24.2265-33.9244 24.2265-36.0756 25.2805-37.805C26.3345-39.5344 28.2745-40.5665 30.3399-40.4967L41.6401-40.4967C43.7055-40.5665 45.6455-39.5344 46.6995-37.805C47.7535-36.0756 47.7535-33.9244 46.6995-32.195C45.6455-30.4656 43.7055-29.4335 41.6401-29.5033L30.3399-29.5033ZM30.0791-12.5C26.9923-12.5 24.49-14.9624 24.49-18C24.49-21.0376 26.9923-23.5 30.0791-23.5L59.9009-23.5C62.9877-23.5 65.49-21.0376 65.49-18C65.49-14.9624 62.9877-12.5 59.9009-12.5L30.0791-12.5Z"/>
   <path class="monochrome-0 monochrome-3 multicolor-0:white multicolor-3:custom hierarchical-0:tertiary hierarchical-3:primary SFSymbolsPreviewWireframe" d="M50.99-46.5C54.0276-46.5 56.49-48.9624 56.49-52C56.49-55.0376 54.0276-57.5 50.99-57.5C47.9524-57.5 45.49-55.0376 45.49-52C45.49-48.9624 47.9524-46.5 50.99-46.5ZM41.99-29.5C45.0276-29.5 47.49-31.9624 47.49-35C47.49-38.0376 45.0276-40.5 41.99-40.5C38.9524-40.5 36.49-38.0376 36.49-35C36.49-31.9624 38.9524-29.5 41.99-29.5Z"/>
   <path class="monochrome-0 monochrome-4 multicolor-0:white multicolor-4:custom hierarchical-0:tertiary hierarchical-4:primary SFSymbolsPreviewWireframe" d="M59.99-12.5C63.0276-12.5 65.49-14.9624 65.49-18C65.49-21.0376 63.0276-23.5 59.99-23.5C56.9524-23.5 54.49-21.0376 54.49-18C54.49-14.9624 56.9524-12.5 59.99-12.5Z"/>
  </g>
  <g id="Ultralight-S" transform="matrix(1 0 0 1 516.35 696)">
   <path class="monochrome-0 multicolor-0:white hierarchical-0:tertiary SFSymbolsPreviewWireframe" d="M43.4703-70.5C30.9309-70.5031 19.338-63.8293 13.0422-52.9831C6.74634-42.137 6.69967-28.7587 12.9197-17.8689L7.65 0.500001L26.0089-4.76379C38.833 2.56741 54.8701 1.10587 66.1582-8.42276C77.4462-17.9514 81.5811-33.5178 76.5099-47.3934C71.4386-61.269 58.2414-70.4987 43.4703-70.5Z"/>
   <path class="monochrome-0 monochrome-1 multicolor-0:white multicolor-1:custom hierarchical-0:tertiary hierarchical-1:tertiary SFSymbolsPreviewWireframe" d="M43.456-69.3C31.238-69.2902 19.9643-62.7279 13.9238-52.1094C7.88333-41.4909 8.0046-28.4486 14.2415-17.9443L9.45-1.32759L26.0491-6.08401C38.3798 1.25412 53.9905 0.0637954 65.0655-9.05904C76.1405-18.1819 80.2961-33.2736 75.4517-46.7784C70.6073-60.2832 57.8056-69.2942 43.456-69.3Z"/>
   <path class="monochrome-0 monochrome-2 multicolor-0:white multicolor-2:white hierarchical-0:tertiary hierarchical-2:secondary SFSymbolsPreviewWireframe" d="M28.2935-46.5C25.1767-46.5 22.65-48.9624 22.65-52C22.65-55.0376 25.1767-57.5 28.2935-57.5L49.0065-57.5C52.1233-57.5 54.65-55.0376 54.65-52C54.65-48.9624 52.1233-46.5 49.0065-46.5L28.2935-46.5ZM28.4999-29.5033C26.4345-29.4335 24.4945-30.4656 23.4405-32.195C22.3865-33.9244 22.3865-36.0756 23.4405-37.805C24.4945-39.5344 26.4345-40.5665 28.4999-40.4967L39.8001-40.4967C41.8655-40.5665 43.8055-39.5344 44.8595-37.805C45.9135-36.0756 45.9135-33.9244 44.8595-32.195C43.8055-30.4656 41.8655-29.4335 39.8001-29.5033L28.4999-29.5033ZM28.2391-12.5C25.1523-12.5 22.65-14.9624 22.65-18C22.65-21.0376 25.1523-23.5 28.2391-23.5L58.0609-23.5C61.1477-23.5 63.65-21.0376 63.65-18C63.65-14.9624 61.1477-12.5 58.0609-12.5L28.2391-12.5Z"/>
   <path class="monochrome-0 monochrome-3 multicolor-0:white multicolor-3:custom hierarchical-0:tertiary hierarchical-3:primary SFSymbolsPreviewWireframe" d="M49.15-46.5C52.1876-46.5 54.65-48.9624 54.65-52C54.65-55.0376 52.1876-57.5 49.15-57.5C46.1124-57.5 43.65-55.0376 43.65-52C43.65-48.9624 46.1124-46.5 49.15-46.5ZM40.15-29.5C43.1876-29.5 45.65-31.9624 45.65-35C45.65-38.0376 43.1876-40.5 40.15-40.5C37.1124-40.5 34.65-38.0376 34.65-35C34.65-31.9624 37.1124-29.5 40.15-29.5Z"/>
   <path class="monochrome-0 monochrome-4 multicolor-0:white multicolor-4:custom hierarchical-0:tertiary hierarchical-4:primary SFSymbolsPreviewWireframe" d="M58.15-12.5C61.1876-12.5 63.65-14.9624 63.65-18C63.65-21.0376 61.1876-23.5 58.15-23.5C55.1124-23.5 52.65-21.0376 52.65-18C52.65-14.9624 55.1124-12.5 58.15-12.5Z"/>
  </g>
 </g>
</svg>
