<?xml version="1.0" encoding="UTF-8"?>
<!--Generator: Apple Native CoreSVG 336-->
<!DOCTYPE svg
PUBLIC "-//W3C//DTD SVG 1.1//EN"
       "http://www.w3.org/Graphics/SVG/1.1/DTD/svg11.dtd">
<svg version="1.1" xmlns="http://www.w3.org/2000/svg" xmlns:xlink="http://www.w3.org/1999/xlink" viewBox="0 0 3300 2200">
 <!--glyph: "", point size: 100.0, font version: "20.0d8e1", template writer version: "138.0.0"-->
 <style>.monochrome-0 {-sfsymbols-motion-group:1;-sfsymbols-layer-tags:7ee22cee04bad708}
.monochrome-1 {opacity:0.0;-sfsymbols-clear-behind:true;-sfsymbols-motion-group:1;-sfsymbols-layer-tags:7ee22cee04bad708}
.monochrome-2 {opacity:0.0;-sfsymbols-clear-behind:true;-sfsymbols-motion-group:0;-sfsymbols-layer-tags:7ee22cee04bad708}
.monochrome-3 {-sfsymbols-motion-group:0;-sfsymbols-layer-tags:7ee22cee04bad708}

.multicolor-0:custom {fill:#361163;-sfsymbols-motion-group:1;-sfsymbols-layer-tags:7ee22cee04bad708}
.multicolor-1:white {-sfsymbols-motion-group:1;-sfsymbols-layer-tags:7ee22cee04bad708}
.multicolor-2:white {-sfsymbols-motion-group:0;-sfsymbols-layer-tags:7ee22cee04bad708}
.multicolor-3:custom {fill:#361163;-sfsymbols-motion-group:0;-sfsymbols-layer-tags:7ee22cee04bad708}

.hierarchical-0:tertiary {-sfsymbols-motion-group:1;-sfsymbols-layer-tags:7ee22cee04bad708}
.hierarchical-1:secondary {-sfsymbols-motion-group:1;-sfsymbols-layer-tags:7ee22cee04bad708}
.hierarchical-2:primary {-sfsymbols-motion-group:0;-sfsymbols-layer-tags:7ee22cee04bad708}
.hierarchical-3:primary {-sfsymbols-motion-group:0;-sfsymbols-layer-tags:7ee22cee04bad708}

.SFSymbolsPreviewWireframe {fill:none;opacity:1.0;stroke:black;stroke-width:0.5}
</style>
 <g id="Notes">
  <rect height="2200" id="artboard" style="fill:white;opacity:1" width="3300" x="0" y="0"/>
  <line style="fill:none;stroke:black;opacity:1;stroke-width:0.5;" x1="263" x2="3036" y1="292" y2="292"/>
  <text style="stroke:none;fill:black;font-family:sans-serif;font-size:13;font-weight:bold;" transform="matrix(1 0 0 1 263 322)">Weight/Scale Variations</text>
  <text style="stroke:none;fill:black;font-family:sans-serif;font-size:13;text-anchor:middle;" transform="matrix(1 0 0 1 559.711 322)">Ultralight</text>
  <text style="stroke:none;fill:black;font-family:sans-serif;font-size:13;text-anchor:middle;" transform="matrix(1 0 0 1 856.422 322)">Thin</text>
  <text style="stroke:none;fill:black;font-family:sans-serif;font-size:13;text-anchor:middle;" transform="matrix(1 0 0 1 1153.13 322)">Light</text>
  <text style="stroke:none;fill:black;font-family:sans-serif;font-size:13;text-anchor:middle;" transform="matrix(1 0 0 1 1449.84 322)">Regular</text>
  <text style="stroke:none;fill:black;font-family:sans-serif;font-size:13;text-anchor:middle;" transform="matrix(1 0 0 1 1746.56 322)">Medium</text>
  <text style="stroke:none;fill:black;font-family:sans-serif;font-size:13;text-anchor:middle;" transform="matrix(1 0 0 1 2043.27 322)">Semibold</text>
  <text style="stroke:none;fill:black;font-family:sans-serif;font-size:13;text-anchor:middle;" transform="matrix(1 0 0 1 2339.98 322)">Bold</text>
  <text style="stroke:none;fill:black;font-family:sans-serif;font-size:13;text-anchor:middle;" transform="matrix(1 0 0 1 2636.69 322)">Heavy</text>
  <text style="stroke:none;fill:black;font-family:sans-serif;font-size:13;text-anchor:middle;" transform="matrix(1 0 0 1 2933.4 322)">Black</text>
  <line style="fill:none;stroke:black;opacity:1;stroke-width:0.5;" x1="263" x2="3036" y1="1903" y2="1903"/>
  <g transform="matrix(0.2 0 0 0.2 263 1933)">
   <path d="m46.2402 4.15039c21.7773 0 39.4531-17.627 39.4531-39.4043s-17.6758-39.4043-39.4531-39.4043c-21.7285 0-39.4043 17.627-39.4043 39.4043s17.6758 39.4043 39.4043 39.4043Zm0-7.42188c-17.6758 0-31.9336-14.3066-31.9336-31.9824s14.2578-31.9824 31.9336-31.9824 31.9824 14.3066 31.9824 31.9824-14.3066 31.9824-31.9824 31.9824Zm-17.9688-31.9824c0 2.14844 1.51367 3.61328 3.75977 3.61328h10.498v10.5957c0 2.19727 1.46484 3.71094 3.61328 3.71094 2.24609 0 3.71094-1.51367 3.71094-3.71094v-10.5957h10.5957c2.19727 0 3.71094-1.46484 3.71094-3.61328 0-2.19727-1.51367-3.71094-3.71094-3.71094h-10.5957v-10.5469c0-2.24609-1.46484-3.75977-3.71094-3.75977-2.14844 0-3.61328 1.51367-3.61328 3.75977v10.5469h-10.498c-2.24609 0-3.75977 1.51367-3.75977 3.71094Z"/>
  </g>
  <g transform="matrix(0.2 0 0 0.2 281.506 1933)">
   <path d="m58.5449 14.5508c27.4902 0 49.8047-22.3145 49.8047-49.8047s-22.3145-49.8047-49.8047-49.8047-49.8047 22.3145-49.8047 49.8047 22.3145 49.8047 49.8047 49.8047Zm0-8.30078c-22.9492 0-41.5039-18.5547-41.5039-41.5039s18.5547-41.5039 41.5039-41.5039 41.5039 18.5547 41.5039 41.5039-18.5547 41.5039-41.5039 41.5039Zm-22.6562-41.5039c0 2.39258 1.66016 4.00391 4.15039 4.00391h14.3555v14.4043c0 2.44141 1.66016 4.15039 4.05273 4.15039 2.44141 0 4.15039-1.66016 4.15039-4.15039v-14.4043h14.4043c2.44141 0 4.15039-1.61133 4.15039-4.00391 0-2.44141-1.70898-4.15039-4.15039-4.15039h-14.4043v-14.3555c0-2.49023-1.70898-4.19922-4.15039-4.19922-2.39258 0-4.05273 1.70898-4.05273 4.19922v14.3555h-14.3555c-2.49023 0-4.15039 1.70898-4.15039 4.15039Z"/>
  </g>
  <g transform="matrix(0.2 0 0 0.2 304.924 1933)">
   <path d="m74.8535 28.3203c35.1074 0 63.623-28.4668 63.623-63.5742s-28.5156-63.623-63.623-63.623-63.5742 28.5156-63.5742 63.623 28.4668 63.5742 63.5742 63.5742Zm0-9.08203c-30.127 0-54.4922-24.3652-54.4922-54.4922s24.3652-54.4922 54.4922-54.4922 54.4922 24.3652 54.4922 54.4922-24.3652 54.4922-54.4922 54.4922Zm-28.8574-54.4922c0 2.58789 1.85547 4.39453 4.58984 4.39453h19.7266v19.7754c0 2.68555 1.85547 4.58984 4.44336 4.58984 2.68555 0 4.54102-1.85547 4.54102-4.58984v-19.7754h19.7754c2.68555 0 4.58984-1.80664 4.58984-4.39453 0-2.73438-1.85547-4.58984-4.58984-4.58984h-19.7754v-19.7266c0-2.73438-1.85547-4.63867-4.54102-4.63867-2.58789 0-4.44336 1.9043-4.44336 4.63867v19.7266h-19.7266c-2.73438 0-4.58984 1.85547-4.58984 4.58984Z"/>
  </g>
  <text style="stroke:none;fill:black;font-family:sans-serif;font-size:13;font-weight:bold;" transform="matrix(1 0 0 1 263 1953)">Design Variations</text>
  <text style="stroke:none;fill:black;font-family:sans-serif;font-size:13;" transform="matrix(1 0 0 1 263 1971)">Symbols are supported in up to nine weights and three scales.</text>
  <text style="stroke:none;fill:black;font-family:sans-serif;font-size:13;" transform="matrix(1 0 0 1 263 1989)">For optimal layout with text and other symbols, vertically align</text>
  <text style="stroke:none;fill:black;font-family:sans-serif;font-size:13;" transform="matrix(1 0 0 1 263 2007)">symbols with the adjacent text.</text>
  <line style="fill:none;stroke:#00AEEF;stroke-width:0.5;opacity:1.0;" x1="776" x2="776" y1="1919" y2="1933"/>
  <g transform="matrix(0.2 0 0 0.2 776 1933)">
   <path d="m16.5527 0.78125c2.58789 0 3.85742-0.976562 4.78516-3.71094l6.29883-17.2363h28.8086l6.29883 17.2363c0.927734 2.73438 2.19727 3.71094 4.73633 3.71094 2.58789 0 4.24805-1.5625 4.24805-4.00391 0-0.830078-0.146484-1.61133-0.537109-2.63672l-22.9004-60.9863c-1.12305-2.97852-3.125-4.49219-6.25-4.49219-3.02734 0-5.07812 1.46484-6.15234 4.44336l-22.9004 61.084c-0.390625 1.02539-0.537109 1.80664-0.537109 2.63672 0 2.44141 1.5625 3.95508 4.10156 3.95508Zm13.4766-28.3691 11.8652-32.8613h0.244141l11.8652 32.8613Z"/>
  </g>
  <line style="fill:none;stroke:#00AEEF;stroke-width:0.5;opacity:1.0;" x1="792.836" x2="792.836" y1="1919" y2="1933"/>
  <text style="stroke:none;fill:black;font-family:sans-serif;font-size:13;font-weight:bold;" transform="matrix(1 0 0 1 776 1953)">Margins</text>
  <text style="stroke:none;fill:black;font-family:sans-serif;font-size:13;" transform="matrix(1 0 0 1 776 1971)">Leading and trailing margins on the left and right side of each symbol</text>
  <text style="stroke:none;fill:black;font-family:sans-serif;font-size:13;" transform="matrix(1 0 0 1 776 1989)">can be adjusted by modifying the x-location of the margin guidelines.</text>
  <text style="stroke:none;fill:black;font-family:sans-serif;font-size:13;" transform="matrix(1 0 0 1 776 2007)">Modifications are automatically applied proportionally to all</text>
  <text style="stroke:none;fill:black;font-family:sans-serif;font-size:13;" transform="matrix(1 0 0 1 776 2025)">scales and weights.</text>
  <g transform="matrix(0.2 0 0 0.2 1289 1933)">
   <path d="m14.209 9.32617 8.49609 8.54492c4.29688 4.3457 9.22852 4.05273 13.8672-1.07422l53.4668-58.9355-4.83398-4.88281-53.0762 58.3984c-1.75781 2.00195-3.41797 2.49023-5.76172 0.146484l-5.85938-5.81055c-2.34375-2.29492-1.80664-4.00391 0.195312-5.81055l57.373-54.0039-4.88281-4.83398-57.959 54.4434c-4.93164 4.58984-5.32227 9.47266-1.02539 13.8184Zm32.0801-90.9668c-2.09961 2.05078-2.24609 4.93164-1.07422 6.88477 1.17188 1.80664 3.4668 2.97852 6.68945 2.14844 7.32422-1.70898 14.9414-2.00195 22.0703 2.68555l-2.92969 7.27539c-1.70898 4.15039-0.830078 7.08008 1.85547 9.81445l11.4746 11.5723c2.44141 2.44141 4.49219 2.53906 7.32422 2.05078l5.32227-0.976562 3.32031 3.36914-0.195312 2.7832c-0.195312 2.49023 0.439453 4.39453 2.88086 6.78711l3.80859 3.71094c2.39258 2.39258 5.46875 2.53906 7.8125 0.195312l14.5508-14.5996c2.34375-2.34375 2.24609-5.32227-0.146484-7.71484l-3.85742-3.80859c-2.39258-2.39258-4.24805-3.17383-6.64062-2.97852l-2.88086 0.244141-3.22266-3.17383 1.2207-5.61523c0.634766-2.83203-0.146484-5.0293-3.07617-7.95898l-10.9863-10.9375c-16.6992-16.6016-38.8672-16.2109-53.3203-1.75781Zm7.4707 1.85547c12.1582-8.88672 28.6133-7.37305 39.7461 3.75977l12.1582 12.0605c1.17188 1.17188 1.36719 2.09961 1.02539 3.80859l-1.61133 7.42188 7.51953 7.42188 4.93164-0.292969c1.26953-0.0488281 1.66016 0.0488281 2.63672 1.02539l2.88086 2.88086-12.207 12.207-2.88086-2.88086c-0.976562-0.976562-1.12305-1.36719-1.07422-2.68555l0.341797-4.88281-7.4707-7.42188-7.61719 1.26953c-1.61133 0.341797-2.34375 0.195312-3.56445-0.976562l-10.0098-10.0098c-1.26953-1.17188-1.41602-2.00195-0.634766-3.85742l4.39453-10.4492c-7.8125-7.27539-17.9688-10.4004-28.125-7.42188-0.78125 0.195312-1.07422-0.439453-0.439453-0.976562Z"/>
  </g>
  <text style="stroke:none;fill:black;font-family:sans-serif;font-size:13;font-weight:bold;" transform="matrix(1 0 0 1 1289 1953)">Exporting</text>
  <text style="stroke:none;fill:black;font-family:sans-serif;font-size:13;" transform="matrix(1 0 0 1 1289 1971)">Symbols should be outlined when exporting to ensure the</text>
  <text style="stroke:none;fill:black;font-family:sans-serif;font-size:13;" transform="matrix(1 0 0 1 1289 1989)">design is preserved when submitting to Xcode.</text>
  <text id="template-version" style="stroke:none;fill:black;font-family:sans-serif;font-size:13;text-anchor:end;" transform="matrix(1 0 0 1 3036 1933)">Template v.6.0</text>
  <text style="stroke:none;fill:black;font-family:sans-serif;font-size:13;text-anchor:end;" transform="matrix(1 0 0 1 3036 1951)">Requires Xcode 16 or greater</text>
  <text id="descriptive-name" style="stroke:none;fill:black;font-family:sans-serif;font-size:13;text-anchor:end;" transform="matrix(1 0 0 1 3036 1969)">Generated from lboro.logo</text>
  <text style="stroke:none;fill:black;font-family:sans-serif;font-size:13;text-anchor:end;" transform="matrix(1 0 0 1 3036 1987)">Typeset at 100.0 points</text>
  <text style="stroke:none;fill:black;font-family:sans-serif;font-size:13;" transform="matrix(1 0 0 1 263 726)">Small</text>
  <text style="stroke:none;fill:black;font-family:sans-serif;font-size:13;" transform="matrix(1 0 0 1 263 1156)">Medium</text>
  <text style="stroke:none;fill:black;font-family:sans-serif;font-size:13;" transform="matrix(1 0 0 1 263 1586)">Large</text>
 </g>
 <g id="Guides">
  <g id="H-reference" style="fill:#27AAE1;stroke:none;" transform="matrix(1 0 0 1 339 696)">
   <path d="M0.993654 0L3.63775 0L29.3281-67.1323L30.0303-67.1323L30.0303-70.459L28.1226-70.459ZM11.6885-24.4799L46.9815-24.4799L46.2315-26.7285L12.4385-26.7285ZM55.1196 0L57.7637 0L30.6382-70.459L29.4326-70.459L29.4326-67.1323Z"/>
  </g>
  <line id="Baseline-S" style="fill:none;stroke:#27AAE1;opacity:1;stroke-width:0.5;" x1="263" x2="3036" y1="696" y2="696"/>
  <line id="Capline-S" style="fill:none;stroke:#27AAE1;opacity:1;stroke-width:0.5;" x1="263" x2="3036" y1="625.541" y2="625.541"/>
  <g id="H-reference" style="fill:#27AAE1;stroke:none;" transform="matrix(1 0 0 1 339 1126)">
   <path d="M0.993654 0L3.63775 0L29.3281-67.1323L30.0303-67.1323L30.0303-70.459L28.1226-70.459ZM11.6885-24.4799L46.9815-24.4799L46.2315-26.7285L12.4385-26.7285ZM55.1196 0L57.7637 0L30.6382-70.459L29.4326-70.459L29.4326-67.1323Z"/>
  </g>
  <line id="Baseline-M" style="fill:none;stroke:#27AAE1;opacity:1;stroke-width:0.5;" x1="263" x2="3036" y1="1126" y2="1126"/>
  <line id="Capline-M" style="fill:none;stroke:#27AAE1;opacity:1;stroke-width:0.5;" x1="263" x2="3036" y1="1055.54" y2="1055.54"/>
  <g id="H-reference" style="fill:#27AAE1;stroke:none;" transform="matrix(1 0 0 1 339 1556)">
   <path d="M0.993654 0L3.63775 0L29.3281-67.1323L30.0303-67.1323L30.0303-70.459L28.1226-70.459ZM11.6885-24.4799L46.9815-24.4799L46.2315-26.7285L12.4385-26.7285ZM55.1196 0L57.7637 0L30.6382-70.459L29.4326-70.459L29.4326-67.1323Z"/>
  </g>
  <line id="Baseline-L" style="fill:none;stroke:#27AAE1;opacity:1;stroke-width:0.5;" x1="263" x2="3036" y1="1556" y2="1556"/>
  <line id="Capline-L" style="fill:none;stroke:#27AAE1;opacity:1;stroke-width:0.5;" x1="263" x2="3036" y1="1485.54" y2="1485.54"/>
  <line id="right-margin-Black-S" style="fill:none;stroke:#00AEEF;stroke-width:0.5;opacity:1.0;" x1="2981.3" x2="2981.3" y1="600.785" y2="720.121"/>
  <line id="left-margin-Black-S" style="fill:none;stroke:#00AEEF;stroke-width:0.5;opacity:1.0;" x1="2885.5" x2="2885.5" y1="600.785" y2="720.121"/>
  <line id="right-margin-Regular-S" style="fill:none;stroke:#00AEEF;stroke-width:0.5;opacity:1.0;" x1="1495.18" x2="1495.18" y1="600.785" y2="720.121"/>
  <line id="left-margin-Regular-S" style="fill:none;stroke:#00AEEF;stroke-width:0.5;opacity:1.0;" x1="1404.51" x2="1404.51" y1="600.785" y2="720.121"/>
  <line id="right-margin-Ultralight-S" style="fill:none;stroke:#00AEEF;stroke-width:0.5;opacity:1.0;" x1="603.073" x2="603.073" y1="600.785" y2="720.121"/>
  <line id="left-margin-Ultralight-S" style="fill:none;stroke:#00AEEF;stroke-width:0.5;opacity:1.0;" x1="516.35" x2="516.35" y1="600.785" y2="720.121"/>
 </g>
 <g id="Symbols">
  <g id="Black-S" transform="matrix(1 0 0 1 2885.5 696)">
   <path class="monochrome-0 multicolor-0:custom hierarchical-0:tertiary SFSymbolsPreviewWireframe" d="M56.9662-73L16.5-73L16.5-30.4453C16.5-26.822 17.9516-23.2508 19.535-19.8678C22.012-14.5638 27.2956-7.83921 33.2199-3.50414C33.6108-3.21942 34.0047-2.94542 34.3971-2.67754C34.532-2.58569 34.6653-2.50456 34.7987-2.41731C35.0562-2.24893 35.3137-2.08055 35.5697-1.91829C35.7383-1.81573 35.8916-1.72235 36.0602-1.62744C36.2901-1.48509 36.52-1.35191 36.7499-1.21874L37.2558-0.934017L37.8996-0.581945C38.0682-0.490101 38.2368-0.413563 38.4054-0.321718C38.62-0.214566 38.8192-0.122722 39.0185-0.0155693L39.5243 0.22935L40.1221 0.504884L40.5973 0.719189L41.563 1.13249C44.7972 2.47955 47.2957 3 48.0008 3L48.0161 3C48.7672 2.98469 51.5875 2.37239 55.1743 0.795726C55.4196 0.688574 55.6801 0.566114 55.9254 0.458962L56.186 0.336502L56.8911-0.0002618L57.2589-0.183951C57.5348-0.321718 57.8107-0.474793 58.102-0.61256C58.3779-0.765635 58.6385-0.903402 58.9144-1.05648L59.3742-1.33201L60.064-1.74531L60.5085-2.02085C60.7691-2.17392 61.0143-2.3423 61.2596-2.51068C61.3975-2.58722 61.5201-2.67907 61.6428-2.7556C62.026-3.01583 62.4092-3.27606 62.777-3.55159C68.709-7.8836 73.9819-14.6036 76.465-19.9153C78.0438-23.2982 79.5-26.8649 79.5-30.4927L79.5-73L56.9677-73L56.9662-73Z"/>
   <path class="monochrome-1 multicolor-1:white hierarchical-1:secondary SFSymbolsPreviewWireframe" d="M78.5-31.1972C78.1926-31.0828 77.9313-30.9501 77.7115-30.8158C77.441-30.6435 77.2351-30.4742 77.1029-30.3506C77.0368-30.2896 76.9892-30.2392 76.96-30.2072C76.9446-30.192 76.9338-30.1767 76.9292-30.1706C76.9292-30.1553 76.9262-30.1553 76.9246-30.1553L76.4943-29.6062L76.0639-30.1553C76.0178-30.2164 74.942-31.4824 72.8517-31.4672C71.7605-31.4672 70.9459-31.1163 70.408-30.7808C70.1467-30.613 69.9315-30.4452 69.8085-30.3079L69.6702-30.1553L69.6395-30.1096L69.6395-30.0943L69.2091-29.5604L68.7788-30.1096C68.7327-30.1706 67.6568-31.4367 65.5819-31.4214C64.4907-31.4214 63.6915-31.0858 63.1689-30.7502C62.9076-30.5825 62.7078-30.4147 62.5849-30.2774C62.5234-30.2164 62.4773-30.1706 62.4466-30.1248L62.4158-30.0943L61.9855-29.5299L61.5398-30.0943C61.4937-30.1401 60.4178-31.4214 58.3429-31.4062C57.1748-31.4062 56.4525-31.2536 56.0528-31.1316C55.853-31.0706 55.7301-31.0096 55.6532-30.9638L55.6379-30.9485C55.5457-30.7808 55.1768-30.0791 55.1768-28.2639C55.1768-27.1656 55.5303-26.3724 55.8684-25.8385C56.0375-25.5639 56.2065-25.3656 56.3295-25.2436C56.391-25.1673 56.4371-25.1215 56.4678-25.1063L56.4986-25.0758L56.5139-25.0605L57.0826-24.6182L56.5139-24.1758C56.4832-24.1453 55.1768-23.1233 55.1768-21.0182C55.1768-19.9199 55.5303-19.1267 55.8684-18.5928C56.0375-18.3335 56.2065-18.1352 56.3295-17.9979C56.391-17.9369 56.4525-17.8912 56.4832-17.8607L56.5293-17.8301L56.5293-17.8149L57.0826-17.3878L56.5293-16.9454C56.4678-16.8844 55.1922-15.7861 55.1922-13.7268C55.1922-12.6285 55.5303-11.8353 55.8684-11.3015C56.0375-11.0269 56.2065-10.8286 56.3295-10.7065C56.391-10.6303 56.4525-10.5998 56.4832-10.5693L56.5293-10.5388L57.0826-10.0964L56.5293-9.65402C56.4986-9.62352 55.1922-8.54048 55.1922-6.43544C55.1922-5.35241 55.5457-4.5592 55.8838-4.02531C56.0528-3.75074 56.2219-3.55244 56.3449-3.43041C56.4063-3.36939 56.4678-3.32363 56.4986-3.29312L56.5293-3.26262L56.5447-3.24736L57.098-2.82025L56.5447-2.37789C56.4986-2.33212 55.7147-1.6457 55.3766-0.349109C51.7033 1.31357 48.7523 2 48.03 2C47.3691 2 44.8177 1.42035 41.5287 0.0169855C41.252-1.50841 40.3145-2.33212 40.253-2.37789L39.6997-2.805L40.253-3.23211L40.2684-3.23211L40.2991-3.26262L40.4374-3.3999C40.5758-3.52193 40.7448-3.72023 40.9139-3.99481C41.252-4.52869 41.6055-5.3219 41.6055-6.40493C41.6209-8.49472 40.2991-9.59301 40.2684-9.62352L39.7304-10.0506L40.2837-10.4777L40.2991-10.4777L40.3452-10.5082L40.4835-10.6455C40.6219-10.7676 40.7909-10.9659 40.96-11.2404C41.2981-11.7743 41.6516-12.5675 41.6516-13.6506C41.667-15.719 40.376-16.8081 40.3145-16.8691L39.7766-17.3039L40.3299-17.731L40.3452-17.731L40.376-17.7615C40.4067-17.7844 40.4682-17.8378 40.5297-17.8988C40.6526-18.0208 40.8217-18.2191 40.9907-18.4861C41.3289-19.02 41.6824-19.8223 41.6824-20.9114C41.6824-23.0012 40.376-24.0385 40.3452-24.0538L39.7766-24.4961L40.3452-24.9385C40.3452-24.9385 40.3452-24.9476 40.3529-24.9537L40.3836-24.9843C40.4144-24.9995 40.4605-25.0453 40.522-25.1215C40.6449-25.2436 40.814-25.4419 40.9831-25.7012C41.3212-26.2351 41.6747-27.0283 41.6747-28.1266C41.6747-29.9265 41.3166-30.6435 41.2136-30.8052L41.1936-30.8204C41.1168-30.8631 40.9938-30.9119 40.794-30.9882C40.3944-31.1102 39.672-31.2628 38.504-31.2628C36.4137-31.2628 35.3378-29.9967 35.2917-29.9357L34.846-29.3713L34.4157-29.9357C34.4157-29.9509 34.4003-29.9662 34.3849-29.9814L34.2466-30.1187C34.1236-30.2408 33.9238-30.4086 33.6626-30.5764C33.1354-30.9119 32.3408-31.2628 31.2496-31.2628C29.1593-31.2628 28.0988-29.9967 28.0373-29.9357L27.607-29.3865L27.1613-29.9357L27.1567-29.9464L27.1259-29.9921C27.0952-30.0226 27.0491-30.0684 26.9722-30.1294C26.8339-30.2514 26.6341-30.4192 26.3574-30.587C25.8041-30.9226 24.9988-31.2582 23.8983-31.2582C21.8173-31.2735 20.7476-30.0074 20.6969-29.9464L20.2665-29.3972L19.8208-29.9464L19.8208-29.9616L19.7901-29.9921L19.6517-30.1294C19.5134-30.2514 19.3136-30.4192 19.0369-30.587C18.6527-30.8158 18.1455-31.0508 17.5-31.1728L17.5-44.2912C18.1455-44.4132 18.6527-44.642 19.0369-44.8785C19.3136-45.0463 19.5134-45.2141 19.6517-45.3361L19.7901-45.4734L19.8054-45.5191L20.2435-46.0683L20.6738-45.5191C20.7199-45.4581 21.7958-44.192 23.8753-44.192C24.9665-44.192 25.7811-44.5429 26.319-44.8785C26.5834-45.0615 26.7955-45.2293 26.9184-45.3513C26.9953-45.4124 27.0414-45.4734 27.0721-45.5039C27.0875-45.5191 27.0875-45.5344 27.1029-45.5344L27.1029-45.5786L27.5332-46.1278L27.9636-45.5786C28.025-45.5176 29.0855-44.2515 31.1758-44.2515C32.2701-44.2515 33.0662-44.5932 33.5888-44.938C33.8501-45.1057 34.0499-45.2735 34.1728-45.3956L34.3112-45.5374L34.3419-45.574L34.7722-46.1537L35.218-45.5893C35.2794-45.5283 36.3399-44.2622 38.4302-44.2622C39.5983-44.2622 40.3206-44.4147 40.7248-44.5368C40.94-44.613 41.063-44.6741 41.1245-44.7046L41.1398-44.7198C41.232-44.8876 41.6009-45.5893 41.6009-47.4045C41.6009-48.4875 41.2474-49.296 40.9093-49.8299C40.7402-50.0892 40.5712-50.2875 40.4482-50.4095C40.3867-50.4767 40.3252-50.5316 40.2945-50.5529C40.2791-50.5682 40.2638-50.5682 40.2638-50.5834L40.2545-50.5987L39.6859-51.0411L40.2545-51.4682C40.2699-51.4987 41.5917-52.5207 41.5763-54.6257C41.5763-55.7088 41.2274-56.502 40.8847-57.0359C40.7156-57.3104 40.5466-57.5087 40.4236-57.6308C40.3621-57.6918 40.3053-57.7375 40.2699-57.7681L40.2238-57.7986L40.2238-57.8138L39.6705-58.2409L40.2238-58.6833C40.3007-58.7443 41.5763-59.8426 41.5609-61.9019C41.5609-63.0002 41.2228-63.7934 40.8847-64.3273C40.7156-64.5866 40.5466-64.7849 40.4236-64.9222C40.3621-64.9984 40.316-65.0442 40.2699-65.0747L40.2392-65.1052L40.2084-65.1052L39.6551-65.5323L40.2084-65.9594C40.2392-65.9747 41.5609-67.073 41.5456-69.178C41.5456-70.261 41.2075-71.0543 40.8693-71.5881C40.7617-71.7559 40.6695-71.8932 40.5619-72L56.1435-72C56.0513-71.8932 55.9437-71.7559 55.8361-71.5881C55.498-71.0543 55.1553-70.261 55.1553-69.178C55.1491-67.073 56.4617-65.9899 56.4924-65.9594L57.0396-65.5171L56.4863-65.09L56.4555-65.09C56.4402-65.09 56.4248-65.0747 56.4094-65.0594L56.2649-64.9222C56.142-64.8001 55.9729-64.6018 55.8039-64.3273C55.4504-63.7934 55.1122-63.0002 55.1122-61.9171C55.0969-59.8426 56.3879-58.7596 56.4494-58.6985L56.9873-58.2562L56.434-57.8291L56.4186-57.8138C56.4186-57.8138 56.3879-57.7986 56.3879-57.7833L56.2342-57.646C56.1113-57.524 55.9422-57.3257 55.7731-57.0511C55.4196-56.5172 55.0815-55.724 55.0815-54.641C55.0815-52.5359 56.3879-51.5139 56.4033-51.4834L56.9719-51.0563L56.4033-50.614L56.3879-50.614L56.3572-50.5834L56.2035-50.4462C56.0805-50.3089 55.9114-50.1106 55.7424-49.8513C55.4043-49.3174 55.0508-48.5242 55.0508-47.4259C55.0508-45.6259 55.4043-44.909 55.5118-44.7564L55.5272-44.7412C55.5887-44.6954 55.7116-44.6344 55.9114-44.5734C56.3111-44.4361 57.0334-44.2988 58.2015-44.2988C60.2764-44.2836 61.3523-45.5496 61.3984-45.6107L61.8441-46.175L62.2744-45.5954L62.2744-45.5786L62.3052-45.5374L62.4435-45.4001C62.5664-45.2781 62.7662-45.1103 63.0275-44.9425C63.5501-44.6069 64.3493-44.2714 65.4405-44.2714C67.5308-44.2714 68.5913-45.5374 68.6528-45.5984L69.0831-46.1476L69.5288-45.6061L69.5288-45.5786L69.5596-45.5481L69.6979-45.4108C69.8362-45.2888 70.036-45.121 70.2973-44.9532C70.8352-44.6176 71.6498-44.2668 72.741-44.2668C74.8313-44.2668 75.9072-45.5329 75.9533-45.5939L76.3836-46.143L76.8293-45.5939L76.8601-45.5527L76.9984-45.4154C77.1214-45.2934 77.3365-45.1256 77.5978-44.9425C77.813-44.8052 78.0743-44.6832 78.3817-44.5612L78.3817-31.0614L78.5-31.1972Z"/>
   <path class="monochrome-2 multicolor-2:white hierarchical-2:primary SFSymbolsPreviewWireframe" d="M72.4699-25.5515C72.3593-25.2383 72.1587-25.1076 71.8316-24.8978C71.7811-24.8674 71.7289-24.8309 71.6784-24.7989C71.2787-24.5253 70.6988-24.4493 70.6909-24.4493C70.6641-24.4341 70.6435-24.4189 70.6435-24.3884C70.6483-24.358 70.6704-24.3428 70.6972-24.3428L71.1175-24.3428C71.3419-24.3428 71.691-24.4037 71.868-24.4341L71.7953-24.2972C71.7479-24.2364 71.6373-24.1908 71.4477-24.0844C71.3055-24.0084 71.1317-23.9324 70.9105-23.7955C70.4365-23.5371 70.3101-23.5371 70.2943-23.5371L70.2785-23.5371C70.2469-23.5371 70.2153-23.5371 70.2153-23.5067C70.1995-23.4915 70.1995-23.461 70.2311-23.4458L70.2469-23.4306C70.2943-23.4002 70.4365-23.3698 70.5313-23.3698C70.6261-23.3698 71.0685-23.461 71.2739-23.4915L71.2107-23.3242C71.1791-23.2026 71.0053-22.9593 70.8473-22.8377C70.7051-22.7313 70.0889-22.6097 69.852-22.5641C69.8204-22.5641 69.8046-22.5336 69.8046-22.5032C69.8046-22.4728 69.8204-22.4576 69.852-22.4424C69.852-22.4424 70.2785-22.3816 70.5155-22.2752C70.5471-22.26 70.5629-22.2296 70.5787-22.1992C70.6103-22.0927 70.5313-21.9255 70.4839-21.8647C70.4207-21.8191 70.0573-21.5758 69.852-21.5454C69.615-21.4998 69.4096-21.4694 69.4096-21.4694C69.3938-21.4542 69.3622-21.439 69.3622-21.4086C69.3622-21.3934 69.378-21.363 69.4096-21.363C69.4096-21.363 69.9784-21.1958 70.1363-21.1197C70.1363-21.1045 70.1679-21.0741 70.1521-20.9981C70.1205-20.9069 70.0573-20.8157 69.9942-20.7397C69.9626-20.6788 69.9152-20.6332 69.8836-20.5876C69.852-20.5268 69.8362-20.5268 69.8046-20.5268C69.7572-20.5268 69.6624-20.5724 69.5834-20.6332C69.3622-20.7549 69.0462-20.7853 69.0304-20.7853C69.0304-20.7853 68.9988-20.7701 68.9988-20.7549C68.983-20.7397 68.983-20.7245 68.983-20.7092C68.983-20.694 68.983-20.5724 69.0936-20.4356L69.2674-20.2684C69.3622-20.1619 69.5044-20.0555 69.5202-19.9795C69.5518-19.9035 69.4728-19.6754 69.2674-19.4018C69.0778-19.1585 68.9988-19.1281 68.9356-19.1281C68.9198-19.1433 68.9198-19.2041 68.9198-19.2649C68.9198-19.3562 68.8882-19.493 68.8408-19.6298C68.7302-19.9339 68.4932-20.1771 68.4774-20.1771C68.4616-20.2075 68.43-20.2075 68.4142-20.1923C68.3984-20.1771 68.3826-20.1467 68.3826-20.1315C68.5722-19.5386 68.7934-18.8696 68.7776-18.7784C68.7618-18.6568 68.5248-18.5048 68.4458-18.5048C68.43-18.5048 68.43-18.5656 68.4142-18.596C68.4142-18.6568 68.3984-18.7176 68.3668-18.7784C68.3036-18.9153 68.0666-19.0217 68.035-19.0217C68.0192-19.0369 67.9876-19.0369 67.9876-19.0217C67.956-19.0217 67.956-19.0065 67.956-18.9761C67.956-18.9761 67.9244-18.672 68.0192-18.4896C68.0666-18.3983 68.0982-18.3223 68.0824-18.2767C68.0824-18.2463 68.0508-18.2311 67.9876-18.2007C67.8138-18.1247 67.6242-18.1551 67.4978-18.2615C67.403-18.3223 67.403-18.3223 67.4504-18.4896L67.4662-18.5352C67.5294-18.748 67.4662-18.8544 67.403-18.9609L67.3872-18.9761C67.3556-19.0217 67.324-19.0369 67.2924-19.0369C67.2134-19.0369 67.1502-18.9305 67.1344-18.9001L67.1344-18.8544C67.166-18.6872 67.2292-18.2463 67.1818-18.1247C67.1502-18.0335 67.0554-18.0183 66.8974-18.0183C66.85-18.0183 66.8026-18.0183 66.771-18.0031C66.6763-17.9879 66.5657-18.0335 66.5025-18.0487C66.5025-18.2463 66.5183-19.1585 66.5025-19.417C66.4867-19.6754 66.5499-19.7971 66.6131-19.8275C66.7236-19.8883 67.3082-20.2684 67.7032-20.9525L68.0982-21.6367C68.5564-22.4576 69.3306-23.8107 69.7888-24.4189C69.9152-24.282 70.1205-24.2212 70.2943-24.282C70.4839-24.3428 70.6103-24.5253 70.5945-24.7229L70.5787-24.9662C71.2265-25.2854 72.2219-25.8328 72.4273-25.9696C72.4747-26 72.4905-26 72.4905-26C72.5379-25.9392 72.3957-25.4983 72.342-25.3463L72.4699-25.5515ZM70.4897-13.0843C70.4316-13.0323 70.346-13 70.2536-13C70.2279-13 70.2057-13.0028 70.192-13.0056L68.515-13.3189C68.3781-13.347 68.2754-13.4383 68.2754-13.5507C68.2583-13.6603 68.3439-13.7614 68.4636-13.8036L68.8059-13.9118L66.6155-15.5133C66.5128-15.5836 66.4786-15.6819 66.5128-15.7803C66.5471-15.8786 66.6326-15.9489 66.7695-15.977L67.9845-16.1877L66.5128-17.3818L66.5128-17.424L66.5299-17.8876L66.5299-18L66.6497-17.9579C66.7011-17.9438 66.7524-17.9298 66.7866-17.8876L68.8572-16.1877C68.9428-16.1174 68.977-16.0191 68.9428-15.9208C68.9086-15.8224 68.8059-15.7522 68.6861-15.7381L67.5053-15.5274L69.1824-14.2911L69.285-14.6002C69.3193-14.7126 69.439-14.7828 69.5759-14.7828C69.6957-14.7828 69.8155-14.7126 69.8668-14.6142L70.4829-13.2796C70.5171-13.1953 70.5-13.0969 70.4316-13.0267L70.4897-13.0843ZM66.5-10.7618C66.4496-10.8588 66.3679-10.979 66.2412-11.1021C66.0423-11.2962 65.8243-11.3193 65.7412-11.3193C65.7099-11.3193 65.6921-11.3121 65.6894-11.3121C65.6758-11.3121 65.6594-11.2976 65.6554-11.2831C65.6485-11.2686 65.6526-11.2469 65.6594-11.2339C65.6622-11.2339 65.733-11.1296 65.7575-10.8863C65.8039-10.5025 65.5218-10.0666 65.4197-10C65.2208-10.7574 64.8829-11.0138 64.8693-11.0224C64.8611-11.0311 64.8516-11.0311 64.842-11.0311C64.8352-11.0311 64.8284-11.0311 64.823-11.0268C64.7957-11.0167 64.714-10.9573 64.5778-10.6546C64.4824-10.4432 64.5233-10.2028 64.5641-10.0579C64.4143-10.1651 64.1554-10.3968 64.1282-10.6923C64.0873-11.0688 64.1009-11.1412 64.1146-11.1904L64.1146-11.2223C64.1146-11.244 64.1146-11.2657 64.1009-11.2802C64.0873-11.2947 64.0737-11.3005 64.0601-11.3005C63.9647-11.3005 63.7195-11.0514 63.6922-10.7762C63.6514-10.811 63.5969-10.8805 63.556-10.9848C63.5151-11.0804 63.4607-11.2657 63.5424-11.4424C63.6514-11.7176 63.883-11.9261 64.0192-12L65.9265-12C66.1581-11.8986 66.4033-11.5192 66.4578-11.2672C66.485-11.0934 66.485-10.9051 66.485-10.7603L66.5-10.7618ZM63.3907-15.4854L61.2244-13.9025L61.5623-13.7942C61.6908-13.7526 61.7702-13.6526 61.7584-13.5443C61.7482-13.4332 61.6536-13.3416 61.5218-13.3166L59.8725-13.0056C59.8556-13.0028 59.832-13 59.8049-13C59.717-13 59.6326-13.0319 59.5751-13.0833C59.5008-13.1569 59.4805-13.2499 59.5193-13.3374L60.1277-14.6495C60.1784-14.7467 60.2916-14.8106 60.4099-14.8106C60.562-14.8023 60.6752-14.7301 60.709-14.6204L60.8053-14.3107L62.4681-15.5326L61.297-15.7367C61.1821-15.7645 61.0858-15.8339 61.052-15.9311C61.0148-16.0283 61.0486-16.1394 61.1331-16.2088L63.1863-17.8889C63.2201-17.9167 63.264-17.9445 63.3214-17.9583L63.4516-18L63.4549-17.8889C63.46-17.7362 63.4718-17.5834 63.4769-17.4307L63.4769-17.3891L62.0287-16.2088L63.2386-16.0006C63.3569-15.9867 63.4583-15.9034 63.487-15.8062C63.5208-15.709 63.487-15.5979 63.4026-15.5285L63.3907-15.4854ZM63.9497-13.802L66.0503-13.802C66.2974-13.802 66.5-13.662 66.5-13.49C66.5-13.32 66.2989-13.18 66.0503-13.18L63.9497-13.18C63.7011-13.18 63.5-13.32 63.5-13.5C63.5-13.68 63.7011-13.82 63.9497-13.82L63.9497-13.802ZM63.5-24.497C63.5-24.669 63.7011-24.81 63.9483-24.81L66.0489-24.81C66.296-24.81 66.5-24.67 66.5-24.5C66.5-24.33 66.296-24.19 66.0489-24.19L63.9483-24.19C63.7011-24.19 63.5-24.33 63.5-24.51L63.5-24.497ZM63.8608-24L66.1409-24C66.2333-23.3282 66.5-21.2049 66.5-19.131C66.5-16.8136 66.1583-14.3821 66.12-14.1109L66.1026-14L63.8957-14L63.8835-14.1048C63.8835-14.1279 63.5-16.6626 63.5-19.131C63.5-21.245 63.7963-23.4083 63.8661-24L63.8608-24ZM68.921-25.4572C68.7926-25.4572 68.6887-25.5379 68.6504-25.667C68.6199-25.7881 68.6627-25.9156 68.7528-25.985L69.9985-26.9453C70.0749-27.0067 70.1911-27.018 70.2828-26.9712C70.3531-26.9389 70.405-26.8743 70.4264-26.7936C70.4326-26.7775 70.4341-26.7452 70.4341-26.7291L70.4998-25.1151C70.5044-24.9859 70.4295-24.8729 70.3164-24.8407C70.2048-24.8084 70.0719-24.8407 70.0031-24.9536L69.809-25.228L68.681-22.8716C68.6306-22.7747 68.5282-22.7102 68.4166-22.7102C68.3035-22.7102 68.2026-22.7747 68.1491-22.8877L67.6387-23.953L66.5902-22L66.5672-22.3228L66.5214-22.8716L66.5-23.1137L67.4018-24.7761C67.4629-24.8729 67.5546-24.9375 67.6616-24.9375C67.7838-24.9375 67.8756-24.8729 67.9214-24.76L68.4258-23.7431L69.2817-25.5347L68.9301-25.5186L68.921-25.4572ZM64.3835-26.7553C64.3835-26.7553 64.3109-26.8619 64.2876-27.1088C64.2397-27.4974 64.5246-27.9357 64.6259-28C64.8259-27.2374 65.1656-26.9774 65.1793-26.9671C65.193-26.9569 65.2067-26.9554 65.2204-26.9627C65.2341-26.973 65.33-27.0329 65.4533-27.3426C65.5355-27.553 65.5081-27.7955 65.467-27.9416C65.604-27.8305 65.8642-27.5997 65.9053-27.2988C65.9464-26.9189 65.9327-26.8459 65.919-26.7977L65.9053-26.7684C65.9053-26.7436 65.9053-26.7246 65.919-26.71C65.919-26.6954 65.9464-26.6896 65.9601-26.6896C66.0423-26.6896 66.2889-26.9379 66.3299-27.2155C66.3573-27.1819 66.4121-27.1088 66.4532-27.008C66.4806-26.9204 66.5354-26.7305 66.4669-26.5551C66.3436-26.2776 66.1108-26.073 65.9738-26L64.0698-26C63.8369-26.1023 63.5904-26.4821 63.5356-26.7451C63.4945-26.9058 63.4945-27.1103 63.5082-27.2564C63.563-27.1687 63.6452-27.0373 63.7685-26.9204C63.9602-26.7305 64.1794-26.7012 64.2753-26.7012L64.3164-26.7012C64.3301-26.7159 64.3438-26.7159 64.3575-26.7451C64.3575-26.7597 64.3575-26.7743 64.3438-26.7889L64.3835-26.7553ZM62.5784-23.6818L63.078-24.6972C63.1303-24.8083 63.2271-24.8718 63.3394-24.8718C63.447-24.8718 63.55-24.8083 63.6007-24.7131L64.5-23.0789L64.48-22.8568L64.4339-22.3173L64.4078-22L63.3547-23.9198L62.8413-22.8885C62.7875-22.7933 62.6875-22.7298 62.5753-22.7298C62.4677-22.7298 62.3601-22.7933 62.314-22.9044L61.1764-25.2208L60.9919-24.9511C60.9304-24.8559 60.7921-24.8083 60.6845-24.8559C60.5769-24.9035 60.5-25.0145 60.5-25.1415L60.5615-26.7281C60.5615-26.7439 60.5769-26.7598 60.5769-26.7915C60.6076-26.8709 60.6537-26.9343 60.7306-26.9661C60.8228-27.0137 60.9458-27.0137 61.0227-26.9502L62.2832-26.0141C62.3755-25.9506 62.4216-25.8237 62.3909-25.7127C62.3447-25.5699 62.2525-25.4905 62.1141-25.4905L61.7606-25.5064L62.6368-23.7453L62.5784-23.6818ZM59.4662-21.6658C59.4254-21.7268 59.3468-21.8947 59.3798-22.0015C59.3955-22.0321 59.4112-22.0626 59.4584-22.0778C59.6941-22.1847 60.1185-22.2457 60.1185-22.2457C60.1499-22.261 60.1656-22.2762 60.1656-22.3068C60.1656-22.3373 60.1499-22.3678 60.1185-22.3678C59.8984-22.4136 59.2855-22.5357 59.144-22.6425C58.9711-22.7646 58.814-23.0088 58.7668-23.1309L58.7197-23.2987C58.924-23.2682 59.3798-23.1767 59.4741-23.1767C59.5841-23.1767 59.7098-23.2224 59.7727-23.2377C59.7884-23.2377 59.7884-23.253 59.8041-23.253C59.8356-23.2682 59.8356-23.2987 59.8198-23.3293C59.8041-23.3598 59.7727-23.3598 59.757-23.3598C59.7413-23.3598 59.6155-23.3445 59.1597-23.604C58.9397-23.7413 58.7668-23.8176 58.6254-23.8939C58.4368-23.9855 58.3268-24.0466 58.2953-24.1076L58.2325-24.2449C58.4053-24.2144 58.7511-24.1381 58.9869-24.1381L59.4112-24.1381C59.4426-24.1381 59.4584-24.1686 59.4584-24.1839C59.4584-24.2144 59.4426-24.2449 59.4112-24.2449C59.4112-24.2449 58.8297-24.3365 58.4368-24.596L58.2796-24.7028C57.9496-24.9164 57.7452-25.0538 57.6509-25.359C57.6038-25.5116 57.4623-25.9542 57.5095-26C57.5095-26 57.5409-26 57.5724-25.9695C57.7924-25.8474 58.7668-25.298 59.4112-24.9775L59.3955-24.7333C59.3955-24.5349 59.5055-24.3518 59.7098-24.2907C59.8984-24.2297 60.087-24.2907 60.2128-24.4281C60.6685-23.8329 61.4387-22.4746 61.8945-21.6505C62.0673-21.3453 62.2088-21.1011 62.3031-20.9485C62.7117-20.2617 63.2775-19.8802 63.3875-19.8192C63.4504-19.8039 63.5133-19.6666 63.4976-19.4071C63.4818-19.1629 63.4976-18.2473 63.4976-18.0489C63.4347-18.0336 63.3247-17.9878 63.2304-18.0031C63.1989-18.0183 63.1518-18.0183 63.1204-18.0183C62.9632-18.0183 62.8689-18.0336 62.8375-18.1252C62.7903-18.2625 62.8532-18.7051 62.8846-18.8577C62.9003-18.873 62.8846-18.8882 62.8846-18.9035C62.8689-18.934 62.806-19.0408 62.7274-19.0408C62.696-19.0408 62.6646-19.0256 62.6331-18.9798L62.6174-18.9645C62.5546-18.8577 62.4917-18.7661 62.5546-18.5372L62.5703-18.4914C62.6174-18.3388 62.6174-18.3388 62.5388-18.2625C62.4131-18.1557 62.2088-18.1252 62.0516-18.2015C62.0045-18.232 61.9573-18.2473 61.9573-18.2778C61.9416-18.3236 61.973-18.3999 62.0202-18.4914C62.1145-18.6746 62.0831-18.9645 62.0831-18.9798C62.0831-18.9951 62.0831-19.0103 62.0673-19.0256L62.0202-19.0256C62.0045-19.0103 61.7687-18.9035 61.6901-18.7661C61.6587-18.7051 61.6587-18.6288 61.643-18.5677C61.643-18.5372 61.643-18.4762 61.6273-18.4762C61.5644-18.4762 61.3287-18.644 61.3129-18.7509C61.2972-18.8424 61.5015-19.5139 61.7059-20.1091C61.7059-20.1397 61.7059-20.1702 61.6744-20.1702C61.6587-20.1854 61.6273-20.1854 61.6116-20.1702C61.5958-20.1549 61.3601-19.926 61.2501-19.6208C61.2029-19.4834 61.1715-19.3461 61.1715-19.2392C61.1715-19.1935 61.1558-19.1324 61.1401-19.1019C61.0929-19.1171 61.0143-19.1477 60.8257-19.3766C60.6214-19.6666 60.5428-19.8802 60.5742-19.9718C60.6057-20.0481 60.7314-20.1702 60.8414-20.2617L61.0143-20.4296C61.1401-20.567 61.1401-20.6891 61.1401-20.7043C61.1401-20.7196 61.1401-20.7348 61.1243-20.7348C61.1243-20.7501 61.1086-20.7654 61.0929-20.7654C61.0772-20.7501 60.7786-20.7348 60.5428-20.5975C60.4642-20.5517 60.3699-20.4907 60.3228-20.4907C60.3071-20.4907 60.2913-20.5059 60.2599-20.5517C60.2442-20.5975 60.197-20.6585 60.1499-20.7043C60.087-20.7806 60.0242-20.8722 60.0084-20.9638C59.9927-21.0248 60.0242-21.0706 60.0399-21.0706C60.197-21.1469 60.7628-21.3148 60.7628-21.3148C60.7943-21.33 60.81-21.3453 60.81-21.3758C60.81-21.4063 60.7943-21.4216 60.7628-21.4216C60.7628-21.4216 60.5742-21.4369 60.3385-21.4827C60.1342-21.5284 59.7727-21.7726 59.7224-21.8031L59.4662-21.6658ZM20.5-62.7349C21.3164-62.0521 23.6244-60.3375 26.1207-60.3102L26.3028-60.3102L26.3028-65.2264L23.7908-65.2264L23.7908-67.5783L26.3028-67.5783L26.3028-70L28.7207-70L28.7207-67.5844L31.17-67.5844L31.17-65.2325L28.738-65.2325L28.738-60.3072L28.9264-60.3102C31.4039-60.3527 33.6836-62.0476 34.5-62.7258L34.5-56.0723C33.6836-56.7399 31.4039-58.4393 28.9264-58.4849L28.738-58.4849L28.738-53.2045L31.2406-53.2045L31.2406-50.8526L28.7348-50.8526L28.7348-48L26.3013-48L26.3013-50.8526L23.852-50.8526L23.852-53.2045L26.3044-53.2045L26.3044-58.4864L26.1207-58.4818C23.6244-58.4545 21.3164-56.7414 20.5-56.0692L20.5-62.7198L20.5-62.7349Z"/>
   <path class="monochrome-3 multicolor-3:custom hierarchical-3:primary SFSymbolsPreviewWireframe" d="M61.3309-39.8758C61.4431-39.577 61.5-39.2782 61.5-38.9899C61.5046-38.3485 61.2004-37.7584 60.6795-37.366C60.2493-37.0445 59.1277-36.3503 57.576-36.1209C56.9-36.0212 56.3315-35.9096 55.9167-35.8039C55.7323-35.7617 55.5787-35.7179 55.4557-35.6786C55.5326-35.5579 55.5787-35.4221 55.5787-35.2862C55.5787-34.9089 55.256-34.6071 54.8719-34.6071C54.4878-34.6071 54.1652-34.9089 54.1652-35.2862L54.1652-35.3164C54.1805-35.6937 54.3034-35.9805 54.6107-36.222C54.7336-36.2974 54.8412-36.3427 54.9948-36.4031C55.1485-36.4484 55.3482-36.5087 55.5787-36.5691C56.0396-36.6747 56.6695-36.8106 57.407-36.9162C58.7436-37.1124 59.7884-37.7463 60.0957-37.9878C60.4183-38.2444 60.572-38.5462 60.5873-38.9386C60.5873-39.1197 60.5412-39.3159 60.4644-39.5272C60.3876-39.7083 60.2186-39.8442 59.9267-39.9649C59.6501-40.0554 59.2814-40.1007 59.0048-40.1007C58.928-40.1007 58.8358-40.1007 58.7744-40.0856C58.1752-40.0404 57.4377-39.648 56.8539-39.2857C56.8539-39.2857 53.2126-35.6937 52.8592-35.241C52.5059-34.7731 51.5687-33.611 49.8172-33.4752C49.9401-33.4148 50.0323-33.294 50.0323-33.1582C50.0323-32.962 49.8786-32.8111 49.6789-32.8111L49.496-32.8111L49.9877-31.6792L51.7392-31.6792C51.9236-31.6792 52.088-31.5282 52.088-31.3471C52.088-31.166 51.9343-31 51.7346-31L44.621-31C44.429-31 44.2738-31.1509 44.2738-31.3471C44.2738-31.5282 44.4275-31.6792 44.6272-31.6792L46.3019-31.6792L46.8396-32.796L46.6399-32.796C46.4555-32.796 46.2865-32.9469 46.2865-33.128C46.2865-33.2639 46.3787-33.3695 46.4862-33.4299L46.348-33.445C46.348-33.445 44.1355-34.1241 42.8142-35.8598C42.3994-36.388 41.0474-38.1991 39.9412-38.4406L35.8851-38.9688C35.6546-38.9839 35.4856-39.1952 35.501-39.4216C35.5317-39.648 35.7314-39.814 35.9773-39.7989L37.3447-39.663C37.2217-39.7234 37.1449-39.8592 37.1603-40.0102C37.1756-40.1611 37.3139-40.2818 37.4676-40.2969C37.0681-40.3724 36.684-41.0214 36.6379-41.4138C36.5918-41.8213 36.7301-42.3495 36.7301-42.3495C36.7301-42.3495 36.7915-42.0024 37.1142-41.6552C37.4215-41.293 37.8209-41.3081 37.8209-41.3081C37.8209-41.3081 37.7441-41.3987 37.7288-41.8213C37.6519-42.4099 38.4509-43.1645 38.4816-42.9683C38.6352-41.9118 39.0808-41.5194 39.0808-41.5194C39.0808-41.5194 39.2191-41.5647 39.4495-41.942C39.68-42.3193 39.5263-42.8475 39.5263-42.8475C39.5263-42.8475 40.2177-42.3797 40.2177-41.7609C40.2177-41.1572 40.1563-41.127 40.1409-41.0365C40.1102-40.9006 40.6325-41.2327 40.7094-41.6401C40.7401-41.8213 40.9091-40.9157 40.7247-40.629C40.4482-40.2215 40.1716-39.9498 39.9873-39.9347L39.9719-39.9347C40.0641-39.8592 40.1255-39.7536 40.1102-39.6329C40.0948-39.4517 39.9412-39.331 39.7722-39.331C39.9258-39.3159 40.0641-39.2857 40.187-39.2706C40.7708-39.1801 41.9231-39.1046 42.9525-39.0593L43.7514-39.0593C43.6132-39.1197 43.521-39.2405 43.521-39.3763C43.521-39.5725 43.6746-39.7234 43.8744-39.7234L46.348-39.7234L46.8857-40.478C46.7935-40.5384 46.7321-40.6441 46.7321-40.7497C46.7321-40.9459 46.8857-41.0968 47.0854-41.0968L47.869-41.0968C47.6846-41.2025 47.5771-41.3685 47.5771-41.5949C47.5771-41.9118 47.8383-42.1684 48.1763-42.1684C48.5143-42.1684 48.7755-41.9118 48.7755-41.5798C48.7755-41.3534 48.6526-41.1874 48.4836-41.0817L49.3439-41.0817C49.5283-41.0817 49.682-40.9308 49.682-40.7346C49.682-40.6139 49.6051-40.5082 49.4976-40.4478L49.9124-39.7083L52.5688-39.7083C52.7686-39.7083 52.9222-39.5574 52.9222-39.3612C52.9222-39.2103 52.83-39.0895 52.6918-39.0443C53.5829-39.0443 54.2282-39.0593 54.3972-39.0744C55.0209-39.1197 55.5802-39.331 56.0104-39.5423C56.164-39.648 56.3438-39.7687 56.542-39.8894C57.1719-40.2667 57.9708-40.6893 58.7913-40.7799C58.8835-40.795 58.9787-40.795 59.0986-40.795C59.4519-40.795 59.8975-40.7497 60.3123-40.5988C60.7271-40.4478 61.1573-40.1611 61.3448-39.663L61.3309-39.8758Z"/>
  </g>
  <g id="Regular-S" transform="matrix(1 0 0 1 1404.51 696)">
   <path class="monochrome-0 multicolor-0:custom hierarchical-0:tertiary SFSymbolsPreviewWireframe" d="M53.3869-71L15.49-71L15.49-31.2449C15.49-27.86 16.8494-24.5237 18.3323-21.3634C20.652-16.4083 25.6001-10.1261 31.1483-6.07624C31.5144-5.81025 31.8833-5.55427 32.2508-5.30401C32.3771-5.21821 32.502-5.14242 32.6269-5.06091C32.868-4.9036 33.1092-4.7463 33.3489-4.59471C33.5068-4.4989 33.6504-4.41167 33.8083-4.32301C34.0236-4.19001 34.2389-4.0656 34.4542-3.94119L34.9279-3.6752L35.5309-3.34629C35.6888-3.26049 35.8467-3.18899 36.0046-3.10318C36.2055-3.00308 36.3921-2.91728 36.5788-2.81718L37.0525-2.58837L37.6123-2.33096L38.0573-2.13076L38.9617-1.74465C41.9905-0.486213 44.3304 0 44.9907 0L45.0051 0C45.7085-0.0143004 48.3498-0.586316 51.7088-2.05926C51.9385-2.15936 52.1825-2.27376 52.4122-2.37386L52.6562-2.48827L53.3165-2.80288L53.6611-2.97448C53.9195-3.10318 54.1778-3.24619 54.4506-3.37489C54.709-3.5179 54.953-3.6466 55.2114-3.7896L55.642-4.04701L56.288-4.43312L56.7043-4.69053C56.9483-4.83353 57.178-4.99084 57.4077-5.14814C57.5369-5.21964 57.6517-5.30544 57.7666-5.37695C58.1254-5.62005 58.4843-5.86316 58.8288-6.12057C64.3842-10.1676 69.3222-16.4454 71.6477-21.4077C73.1263-24.5681 74.49-27.9001 74.49-31.2893L74.49-71L53.3883-71L53.3869-71Z"/>
   <path class="monochrome-1 multicolor-1:white hierarchical-1:secondary SFSymbolsPreviewWireframe" d="M73.5574-31.7194C73.2702-31.6123 73.0261-31.4881 72.8208-31.3624C72.5681-31.201 72.3757-31.0424 72.2522-30.9267C72.1905-30.8696 72.1459-30.8225 72.1187-30.7925C72.1043-30.7782 72.0943-30.7639 72.0899-30.7582C72.0899-30.7439 72.0871-30.7439 72.0856-30.7439L71.6836-30.2297L71.2816-30.7439C71.2385-30.801 70.2334-31.9865 68.2806-31.9723C67.2612-31.9723 66.5002-31.6437 65.9976-31.3295C65.7535-31.1724 65.5525-31.0153 65.4376-30.8867L65.3084-30.7439L65.2797-30.7011L65.2797-30.6868L64.8777-30.1869L64.4756-30.7011C64.4325-30.7582 63.4275-31.9437 61.4891-31.9294C60.4696-31.9294 59.723-31.6152 59.2348-31.3009C58.9907-31.1438 58.804-30.9867 58.6891-30.8582C58.6317-30.801 58.5886-30.7582 58.5599-30.7153L58.5312-30.6868L58.1292-30.1583L57.7128-30.6868C57.6697-30.7296 56.6646-31.9294 54.7262-31.9151C53.6349-31.9151 52.9601-31.7723 52.5868-31.658C52.4001-31.6009 52.2852-31.5438 52.2135-31.5009L52.1991-31.4866C52.1129-31.3295 51.7683-30.6725 51.7683-28.9728C51.7683-27.9444 52.0986-27.2017 52.4145-26.7017C52.5724-26.4446 52.7304-26.259 52.8452-26.1447C52.9027-26.0733 52.9457-26.0304 52.9745-26.0161L53.0032-25.9876L53.0175-25.9733L53.5488-25.5591L53.0175-25.1449C52.9888-25.1163 51.7683-24.1593 51.7683-22.1882C51.7683-21.1598 52.0986-20.4171 52.4145-19.9172C52.5724-19.6744 52.7304-19.4887 52.8452-19.3601C52.9027-19.303 52.9601-19.2602 52.9888-19.2316L53.0319-19.203L53.0319-19.1887L53.5488-18.7888L53.0319-18.3746C52.9745-18.3175 51.7827-17.2891 51.7827-15.3608C51.7827-14.3324 52.0986-13.5897 52.4145-13.0898C52.5724-12.8327 52.7304-12.647 52.8452-12.5328C52.9027-12.4613 52.9601-12.4328 52.9888-12.4042L53.0319-12.3756L53.5488-11.9614L53.0319-11.5472C53.0032-11.5186 51.7827-10.5045 51.7827-8.53344C51.7827-7.51933 52.1129-6.7766 52.4288-6.27669C52.5868-6.01959 52.7447-5.8339 52.8596-5.71964C52.917-5.66251 52.9745-5.61966 53.0032-5.59109L53.0319-5.56252L53.0462-5.54824L53.5632-5.14831L53.0462-4.73409C53.0032-4.69124 52.2709-4.0485 51.955-2.83442C48.5233-1.27755 45.7665-0.634801 45.0916-0.634801C44.4742-0.634801 42.0907-1.17756 39.018-2.49162C38.7595-3.91995 37.8837-4.69124 37.8262-4.73409L37.3093-5.13403L37.8262-5.53396L37.8406-5.53396L37.8693-5.56252L37.9985-5.69107C38.1277-5.80534 38.2857-5.99102 38.4436-6.24812C38.7595-6.74803 39.0898-7.49076 39.0898-8.50487C39.1041-10.4617 37.8693-11.4901 37.8406-11.5186L37.338-11.9186L37.8549-12.3185L37.8693-12.3185L37.9124-12.3471L38.0416-12.4756C38.1708-12.5899 38.3288-12.7756 38.4867-13.0327C38.8026-13.5326 39.1328-14.2753 39.1328-15.2894C39.1472-17.2262 37.9411-18.2461 37.8837-18.3032L37.3811-18.7103L37.898-19.1102L37.9124-19.1102L37.9411-19.1388C37.9698-19.1602 38.0272-19.2102 38.0847-19.2673C38.1995-19.3816 38.3575-19.5673 38.5154-19.8172C38.8313-20.3171 39.1616-21.0684 39.1616-22.0882C39.1616-24.0451 37.9411-25.0163 37.9124-25.0306L37.3811-25.4448L37.9124-25.859C37.9124-25.859 37.9124-25.8676 37.9195-25.8733L37.9483-25.9019C37.977-25.9162 38.0201-25.959 38.0775-26.0304C38.1924-26.1447 38.3503-26.3304 38.5082-26.5732C38.8241-27.0731 39.1544-27.8158 39.1544-28.8442C39.1544-30.5297 38.8198-31.201 38.7236-31.3524L38.705-31.3666C38.6332-31.4066 38.5183-31.4523 38.3316-31.5238C37.9583-31.638 37.2835-31.7809 36.1922-31.7809C34.2395-31.7809 33.2344-30.5954 33.1913-30.5382L32.7749-30.0097L32.3729-30.5382C32.3729-30.5525 32.3585-30.5668 32.3441-30.5811L32.2149-30.7096C32.1-30.8239 31.9134-30.981 31.6693-31.1381C31.1768-31.4523 30.4345-31.7809 29.415-31.7809C27.4622-31.7809 26.4715-30.5954 26.4141-30.5382L26.012-30.024L25.5956-30.5382L25.5913-30.5482L25.5626-30.5911C25.5339-30.6196 25.4908-30.6625 25.419-30.7196C25.2898-30.8339 25.1031-30.991 24.8447-31.1481C24.3278-31.4623 23.5754-31.7766 22.5473-31.7766C20.6032-31.7909 19.6038-30.6054 19.5564-30.5482L19.1544-30.034L18.738-30.5482L18.738-30.5625L18.7093-30.5911L18.5801-30.7196C18.4508-30.8339 18.2642-30.991 18.0057-31.1481C17.6468-31.3624 17.1729-31.5823 16.5699-31.6966L16.5699-43.9802C17.1729-44.0945 17.6468-44.3087 18.0057-44.5301C18.2642-44.6872 18.4508-44.8443 18.5801-44.9586L18.7093-45.0871L18.7236-45.13L19.1329-45.6442L19.5349-45.13C19.578-45.0729 20.5831-43.8874 22.5258-43.8874C23.5452-43.8874 24.3062-44.2159 24.8088-44.5301C25.0558-44.7015 25.2539-44.8586 25.3688-44.9729C25.4406-45.03 25.4836-45.0871 25.5124-45.1157C25.5267-45.13 25.5267-45.1443 25.5411-45.1443L25.5411-45.1857L25.9431-45.6999L26.3451-45.1857C26.4026-45.1286 27.3933-43.9431 29.3461-43.9431C30.3684-43.9431 31.1122-44.263 31.6004-44.5858C31.8445-44.7429 32.0311-44.9 32.146-45.0143L32.2752-45.1471L32.3039-45.1814L32.706-45.7242L33.1224-45.1957C33.1798-45.1386 34.1705-43.9531 36.1233-43.9531C37.2145-43.9531 37.8894-44.0959 38.267-44.2102C38.468-44.2816 38.5829-44.3387 38.6403-44.3673L38.6547-44.3816C38.7409-44.5387 39.0855-45.1957 39.0855-46.8954C39.0855-47.9095 38.7552-48.6665 38.4393-49.1664C38.2814-49.4093 38.1234-49.5949 38.0086-49.7092C37.9511-49.7721 37.8937-49.8235 37.865-49.8435C37.8506-49.8578 37.8363-49.8578 37.8363-49.872L37.8277-49.8863L37.2964-50.3005L37.8277-50.7005C37.842-50.729 39.0768-51.686 39.0625-53.6571C39.0625-54.6712 38.7365-55.4139 38.4164-55.9139C38.2584-56.1709 38.1005-56.3566 37.9856-56.4709C37.9282-56.528 37.875-56.5709 37.842-56.5994L37.7989-56.628L37.7989-56.6423L37.282-57.0422L37.7989-57.4564C37.8707-57.5136 39.0625-58.542 39.0481-60.4702C39.0481-61.4986 38.7322-62.2413 38.4164-62.7412C38.2584-62.9841 38.1005-63.1697 37.9856-63.2983C37.9282-63.3697 37.8851-63.4126 37.842-63.4411L37.8133-63.4697L37.7846-63.4697L37.2677-63.8696L37.7846-64.2696C37.8133-64.2838 39.0481-65.3122 39.0338-67.2833C39.0338-68.2974 38.7179-69.0402 38.402-69.5401C38.3015-69.6972 38.2153-69.8257 38.1148-69.9257L52.6715-69.9257C52.5853-69.8257 52.4848-69.6972 52.3843-69.5401C52.0684-69.0402 51.7482-68.2974 51.7482-67.2833C51.7425-65.3122 52.9687-64.2981 52.9974-64.2696L53.5086-63.8553L52.9917-63.4554L52.963-63.4554C52.9486-63.4554 52.9342-63.4411 52.9199-63.4268L52.7849-63.2983C52.6701-63.184 52.5121-62.9983 52.3542-62.7412C52.0239-62.2413 51.708-61.4986 51.708-60.4845C51.6937-58.542 52.8998-57.5279 52.9572-57.4707L53.4598-57.0565L52.9429-56.6566L52.9285-56.6423C52.9285-56.6423 52.8998-56.628 52.8998-56.6137L52.7562-56.4852C52.6413-56.3709 52.4834-56.1852 52.3254-55.9281C51.9952-55.4282 51.6793-54.6855 51.6793-53.6714C51.6793-51.7003 52.8998-50.7433 52.9141-50.7147L53.4454-50.3148L52.9141-49.9006L52.8998-49.9006L52.8711-49.872L52.7275-49.7435C52.6126-49.6149 52.4547-49.4293 52.2967-49.1864C51.9808-48.6865 51.6506-47.9438 51.6506-46.9154C51.6506-45.23 51.9808-44.5587 52.0814-44.4158L52.0957-44.4015C52.1531-44.3587 52.268-44.3016 52.4547-44.2444C52.828-44.1159 53.5028-43.9873 54.5941-43.9873C56.5325-43.973 57.5376-45.1586 57.5807-45.2157L57.9971-45.7442L58.3991-45.2014L58.3991-45.1857L58.4278-45.1471L58.557-45.0186C58.6719-44.9043 58.8586-44.7472 59.1027-44.5901C59.5909-44.2759 60.3375-43.9616 61.357-43.9616C63.3097-43.9616 64.3005-45.1471 64.3579-45.2043L64.7599-45.7185L65.1763-45.2114L65.1763-45.1857L65.205-45.1571L65.3343-45.0286C65.4635-44.9143 65.6502-44.7572 65.8942-44.6001C66.3968-44.2859 67.1578-43.9573 68.1773-43.9573C70.13-43.9573 71.1351-45.1428 71.1782-45.2L71.5802-45.7142L71.9966-45.2L72.0253-45.1614L72.1546-45.0329C72.2694-44.9186 72.4704-44.7615 72.7145-44.5901C72.9156-44.4615 73.1597-44.3473 73.4468-44.233L73.4468-31.5923L73.5574-31.7194Z"/>
   <path class="monochrome-2 multicolor-2:white hierarchical-2:primary SFSymbolsPreviewWireframe" d="M68.131-26.7772C68.0315-26.4828 67.8509-26.3599 67.5566-26.1627C67.5111-26.1341 67.4642-26.0998 67.4187-26.0698C67.059-25.8125 66.5372-25.7411 66.5301-25.7411C66.5059-25.7268 66.4874-25.7125 66.4874-25.6839C66.4917-25.6553 66.5116-25.641 66.5358-25.641L66.914-25.641C67.1158-25.641 67.4301-25.6982 67.5893-25.7268L67.5239-25.5982C67.4812-25.541 67.3817-25.4981 67.2111-25.3981C67.0831-25.3266 66.9268-25.2552 66.7277-25.1266C66.3012-24.8836 66.1874-24.8836 66.1732-24.8836L66.159-24.8836C66.1306-24.8836 66.1021-24.8836 66.1021-24.855C66.0879-24.8407 66.0879-24.8122 66.1163-24.7979L66.1306-24.7836C66.1732-24.755 66.3012-24.7264 66.3865-24.7264C66.4718-24.7264 66.8699-24.8122 67.0547-24.8407L66.9978-24.6835C66.9694-24.5692 66.813-24.3406 66.6708-24.2262C66.5429-24.1262 65.9884-24.0119 65.7751-23.969C65.7467-23.969 65.7325-23.9404 65.7325-23.9118C65.7325-23.8832 65.7467-23.869 65.7751-23.8547C65.7751-23.8547 66.159-23.7975 66.3723-23.6975C66.4007-23.6832 66.4149-23.6546 66.4291-23.626C66.4576-23.526 66.3865-23.3688 66.3438-23.3116C66.2869-23.2687 65.9599-23.0401 65.7751-23.0115C65.5618-22.9686 65.377-22.94 65.377-22.94C65.3628-22.9258 65.3344-22.9115 65.3344-22.8829C65.3344-22.8686 65.3486-22.84 65.377-22.84C65.377-22.84 65.8888-22.6828 66.031-22.6113C66.031-22.5971 66.0595-22.5685 66.0452-22.497C66.0168-22.4113 65.9599-22.3255 65.9031-22.2541C65.8746-22.1969 65.832-22.154 65.8035-22.1112C65.7751-22.054 65.7609-22.054 65.7325-22.054C65.6898-22.054 65.6045-22.0969 65.5334-22.154C65.3344-22.2684 65.05-22.2969 65.0358-22.2969C65.0358-22.2969 65.0073-22.2827 65.0073-22.2684C64.9931-22.2541 64.9931-22.2398 64.9931-22.2255C64.9931-22.2112 64.9931-22.0969 65.0927-21.9683L65.249-21.8111C65.3344-21.711 65.4623-21.611 65.4765-21.5395C65.505-21.4681 65.4339-21.2537 65.249-20.9965C65.0784-20.7678 65.0073-20.7392 64.9505-20.7392C64.9363-20.7535 64.9363-20.8107 64.9363-20.8678C64.9363-20.9536 64.9078-21.0822 64.8652-21.2108C64.7656-21.4967 64.5524-21.7253 64.5382-21.7253C64.5239-21.7539 64.4955-21.7539 64.4813-21.7396C64.4671-21.7253 64.4528-21.6967 64.4528-21.6824C64.6235-21.1251 64.8225-20.4963 64.8083-20.4105C64.7941-20.2962 64.5808-20.1533 64.5097-20.1533C64.4955-20.1533 64.4955-20.2105 64.4813-20.239C64.4813-20.2962 64.4671-20.3534 64.4386-20.4105C64.3818-20.5392 64.1685-20.6392 64.1401-20.6392C64.1258-20.6535 64.0974-20.6535 64.0974-20.6392C64.069-20.6392 64.069-20.6249 64.069-20.5963C64.069-20.5963 64.0405-20.3105 64.1258-20.139C64.1685-20.0533 64.1969-19.9818 64.1827-19.9389C64.1827-19.9103 64.1543-19.8961 64.0974-19.8675C63.941-19.796 63.7704-19.8246 63.6567-19.9246C63.5713-19.9818 63.5713-19.9818 63.614-20.139L63.6282-20.1819C63.6851-20.382 63.6282-20.482 63.5713-20.582L63.5571-20.5963C63.5287-20.6392 63.5003-20.6535 63.4718-20.6535C63.4007-20.6535 63.3439-20.5534 63.3296-20.5249L63.3296-20.482C63.3581-20.3248 63.4149-19.9103 63.3723-19.796C63.3439-19.7103 63.2586-19.696 63.1164-19.696C63.0737-19.696 63.0311-19.696 63.0026-19.6817C62.9173-19.6674 62.8178-19.7103 62.7609-19.7246C62.7609-19.9103 62.7751-20.7678 62.7609-21.0108C62.7467-21.2537 62.8036-21.368 62.8605-21.3966C62.96-21.4538 63.486-21.8111 63.8415-22.4541L64.1969-23.0972C64.6092-23.869 65.3059-25.1409 65.7182-25.7125C65.832-25.5839 66.0168-25.5267 66.1732-25.5839C66.3438-25.641 66.4576-25.8125 66.4433-25.9983L66.4291-26.227C67.0121-26.5271 67.9078-27.0416 68.0926-27.1702C68.1353-27.1988 68.1495-27.1988 68.1495-27.1988C68.1921-27.1416 68.0642-26.7272 68.0158-26.5842L68.131-26.7772ZM66.1369-14.686C66.0876-14.6332 66.0152-14.6004 65.9369-14.6004C65.9152-14.6004 65.8964-14.6033 65.8848-14.6061L64.4648-14.9243C64.3489-14.9529 64.262-15.0456 64.262-15.1598C64.2475-15.2711 64.3199-15.3738 64.4214-15.4166L64.7111-15.5265L62.8565-17.1532C62.7696-17.2245 62.7406-17.3244 62.7696-17.4243C62.7986-17.5242 62.871-17.5955 62.9869-17.6241L64.0157-17.8381L62.7696-19.051L62.7696-19.0938L62.7841-19.5647L62.7841-19.6788L62.8855-19.636C62.929-19.6217 62.9724-19.6075 63.0014-19.5647L64.7546-17.8381C64.8271-17.7667 64.856-17.6669 64.8271-17.567C64.7981-17.4671 64.7111-17.3957 64.6097-17.3815L63.61-17.1674L65.0299-15.9118L65.1168-16.2257C65.1458-16.3398 65.2472-16.4112 65.3632-16.4112C65.4646-16.4112 65.566-16.3398 65.6095-16.2399L66.1311-14.8844C66.1601-14.7988 66.1456-14.6989 66.0876-14.6275L66.1369-14.686ZM62.7587-13.2144C62.7068-13.3115 62.6225-13.4319 62.4919-13.5551C62.2869-13.7494 62.0622-13.7726 61.9765-13.7726C61.9442-13.7726 61.926-13.7653 61.9232-13.7653C61.9091-13.7653 61.8923-13.7508 61.8881-13.7363C61.8811-13.7218 61.8853-13.7001 61.8923-13.687C61.8951-13.687 61.9681-13.5826 61.9934-13.3391C62.0411-12.9549 61.7505-12.5185 61.6451-12.4519C61.4401-13.2101 61.0919-13.4667 61.0778-13.4754C61.0694-13.4841 61.0596-13.4841 61.0497-13.4841C61.0427-13.4841 61.0357-13.4841 61.0301-13.4797C61.002-13.4696 60.9177-13.4101 60.7773-13.1071C60.679-12.8955 60.7211-12.6548 60.7633-12.5098C60.6088-12.6171 60.342-12.8491 60.3139-13.1448C60.2718-13.5218 60.2858-13.5942 60.2999-13.6435L60.2999-13.6754C60.2999-13.6972 60.2999-13.7189 60.2858-13.7334C60.2718-13.7479 60.2577-13.7537 60.2437-13.7537C60.1454-13.7537 59.8926-13.5044 59.8645-13.2289C59.8224-13.2637 59.7662-13.3333 59.7241-13.4377C59.682-13.5333 59.6258-13.7189 59.7101-13.8958C59.8224-14.1712 60.0611-14.38 60.2016-14.4539L62.1675-14.4539C62.4062-14.3524 62.659-13.9726 62.7152-13.7204C62.7433-13.5464 62.7433-13.3579 62.7433-13.213L62.7587-13.2144ZM59.5739-17.1248L57.7396-15.5171L58.0257-15.4071C58.1345-15.3648 58.2017-15.2632 58.1917-15.1532C58.1831-15.0404 58.103-14.9473 57.9914-14.922L56.5949-14.6061C56.5806-14.6032 56.5606-14.6004 56.5377-14.6004C56.4633-14.6004 56.3918-14.6328 56.3431-14.685C56.2802-14.7598 56.263-14.8543 56.2959-14.9431L56.811-16.2758C56.8539-16.3745 56.9498-16.4394 57.0499-16.4394C57.1787-16.431 57.2746-16.3576 57.3032-16.2462L57.3847-15.9317L58.7926-17.1728L57.8011-17.3801C57.7038-17.4083 57.6222-17.4788 57.5936-17.5775C57.5621-17.6762 57.5908-17.789 57.6623-17.8596L59.4007-19.566C59.4293-19.5942 59.4665-19.6224 59.5152-19.6365L59.6254-19.6788L59.6282-19.566C59.6325-19.4109 59.6425-19.2557 59.6468-19.1006L59.6468-19.0583L58.4206-17.8596L59.4451-17.648C59.5452-17.6339 59.6311-17.5493 59.6554-17.4506C59.684-17.3519 59.6554-17.239 59.5839-17.1685L59.5739-17.1248ZM60.2551-15.697L62.3172-15.697C62.5598-15.697 62.7587-15.5055 62.7587-15.2704C62.7587-15.0379 62.5613-14.8465 62.3172-14.8465L60.2551-14.8465C60.0111-14.8465 59.8136-15.0379 59.8136-15.284C59.8136-15.5302 60.0111-15.7216 60.2551-15.7216L60.2551-15.697ZM59.8136-25.8762C59.8136-26.1114 60.0111-26.3042 60.2537-26.3042L62.3158-26.3042C62.5584-26.3042 62.7587-26.1128 62.7587-25.8803C62.7587-25.6479 62.5584-25.4565 62.3158-25.4565L60.2537-25.4565C60.0111-25.4565 59.8136-25.6479 59.8136-25.894L59.8136-25.8762ZM60.3052-25.1967L62.1704-25.1967C62.246-24.5767 62.4642-22.6171 62.4642-20.7031C62.4642-18.5643 62.1847-16.3203 62.1533-16.0701L62.1391-15.9677L60.3337-15.9677L60.3237-16.0644C60.3237-16.0857 60.01-18.425 60.01-20.7031C60.01-22.6541 60.2524-24.6506 60.3094-25.1967L60.3052-25.1967ZM64.722-26.7554C64.6023-26.7554 64.5054-26.8272 64.4697-26.9419C64.4412-27.0495 64.4811-27.1628 64.5652-27.2245L65.7269-28.078C65.7982-28.1325 65.9065-28.1425 65.9921-28.1009C66.0576-28.0722 66.1061-28.0149 66.1261-27.9431C66.1318-27.9288 66.1332-27.9001 66.1332-27.8858L66.1945-26.4514C66.1987-26.3366 66.1289-26.2362 66.0234-26.2075C65.9194-26.1788 65.7954-26.2075 65.7312-26.3079L65.5502-26.5518L64.4983-24.4575C64.4512-24.3715 64.3557-24.3141 64.2517-24.3141C64.1462-24.3141 64.0521-24.3715 64.0022-24.4719L63.5261-25.4186L62.5483-23.6829L62.5269-23.9698L62.4842-24.4575L62.4642-24.6727L63.3052-26.1501C63.3622-26.2362 63.4477-26.2936 63.5475-26.2936C63.6615-26.2936 63.7471-26.2362 63.7898-26.1358L64.2602-25.2321L65.0584-26.8243L64.7306-26.81L64.722-26.7554ZM60.5771-27.5154C60.5771-27.5154 60.5022-27.6221 60.4782-27.8693C60.4288-28.2583 60.7225-28.697 60.827-28.7613C61.0331-27.998 61.3833-27.7376 61.3974-27.7274C61.4115-27.7172 61.4256-27.7157 61.4398-27.723C61.4539-27.7333 61.5527-27.7932 61.6798-28.1033C61.7645-28.3138 61.7363-28.5566 61.6939-28.7029C61.8351-28.5917 62.1034-28.3606 62.1457-28.0594C62.1881-27.6792 62.174-27.606 62.1598-27.5578L62.1457-27.5285C62.1457-27.5037 62.1457-27.4846 62.1598-27.47C62.1598-27.4554 62.1881-27.4496 62.2022-27.4496C62.2869-27.4496 62.5411-27.6982 62.5834-27.976C62.6117-27.9424 62.6681-27.8693 62.7105-27.7684C62.7387-27.6806 62.7952-27.4905 62.7246-27.315C62.5976-27.0371 62.3575-26.8324 62.2163-26.7593L60.2537-26.7593C60.0137-26.8617 59.7595-27.2419 59.7031-27.5051C59.6607-27.666 59.6607-27.8707 59.6748-28.017C59.7313-27.9292 59.816-27.7976 59.9431-27.6806C60.1408-27.4905 60.3667-27.4612 60.4655-27.4612L60.5079-27.4612C60.522-27.4759 60.5361-27.4759 60.5502-27.5051C60.5502-27.5197 60.5502-27.5344 60.5361-27.549L60.5771-27.5154ZM58.2179-25.1776L58.6838-26.08C58.7326-26.1787 58.8229-26.2351 58.9275-26.2351C59.0279-26.2351 59.1239-26.1787 59.1713-26.0941L60.01-24.6418L59.9913-24.4444L59.9483-23.965L59.9239-23.6829L58.9419-25.3891L58.463-24.4726C58.4128-24.388 58.3197-24.3316 58.215-24.3316C58.1146-24.3316 58.0143-24.388 57.9713-24.4867L56.9103-26.5453L56.7383-26.3056C56.6809-26.221 56.5519-26.1787 56.4516-26.221C56.3512-26.2633 56.2795-26.362 56.2795-26.4748L56.3369-27.8849C56.3369-27.899 56.3512-27.9131 56.3512-27.9413C56.3799-28.0118 56.4229-28.0682 56.4946-28.0964C56.5806-28.1387 56.6953-28.1387 56.767-28.0823L57.9426-27.2504C58.0286-27.194 58.0716-27.0812 58.043-26.9825C57.9999-26.8556 57.9139-26.785 57.7849-26.785L57.4551-26.7992L58.2723-25.234L58.2179-25.1776ZM56.0364-23.4176C55.9996-23.475 55.9289-23.6328 55.9586-23.7332C55.9728-23.7619 55.9869-23.7906 56.0293-23.8049C56.2415-23.9054 56.6234-23.9627 56.6234-23.9627C56.6517-23.9771 56.6658-23.9914 56.6658-24.0201C56.6658-24.0488 56.6517-24.0775 56.6234-24.0775C56.4254-24.1205 55.8738-24.2353 55.7465-24.3357C55.5909-24.4505 55.4495-24.68 55.407-24.7948L55.3646-24.9526C55.5485-24.9239 55.9586-24.8378 56.0435-24.8378C56.1425-24.8378 56.2556-24.8809 56.3122-24.8952C56.3264-24.8952 56.3264-24.9096 56.3405-24.9096C56.3688-24.9239 56.3688-24.9526 56.3546-24.9813C56.3405-25.01 56.3122-25.01 56.2981-25.01C56.2839-25.01 56.1708-24.9956 55.7606-25.2395C55.5626-25.3686 55.407-25.4403 55.2798-25.5121C55.11-25.5981 55.011-25.6555 54.9827-25.7129L54.9262-25.842C55.0817-25.8133 55.3929-25.7416 55.605-25.7416L55.9869-25.7416C56.0152-25.7416 56.0293-25.7703 56.0293-25.7846C56.0293-25.8133 56.0152-25.842 55.9869-25.842C55.9869-25.842 55.4636-25.9281 55.11-26.172L54.9686-26.2724C54.6716-26.4732 54.4877-26.6023 54.4029-26.8892C54.3604-27.0327 54.2331-27.4487 54.2756-27.4917C54.2756-27.4917 54.3039-27.4917 54.3322-27.4631C54.5302-27.3483 55.407-26.8319 55.9869-26.5306L55.9728-26.3011C55.9728-26.1146 56.0718-25.9424 56.2556-25.885C56.4254-25.8277 56.5951-25.885 56.7082-26.0142C57.1184-25.4547 57.8114-24.1779 58.2216-23.4033C58.3771-23.1164 58.5044-22.8868 58.5893-22.7434C58.957-22.0978 59.4662-21.7392 59.5652-21.6818C59.6217-21.6675 59.6783-21.5384 59.6642-21.2945C59.65-21.0649 59.6642-20.2042 59.6642-20.0177C59.6076-20.0034 59.5086-19.9603 59.4237-19.9747C59.3955-19.989 59.353-19.989 59.3247-19.989C59.1833-19.989 59.0984-20.0034 59.0702-20.0895C59.0277-20.2186 59.0843-20.6346 59.1126-20.778C59.1267-20.7924 59.1126-20.8067 59.1126-20.8211C59.0984-20.8498 59.0419-20.9502 58.9712-20.9502C58.9429-20.9502 58.9146-20.9358 58.8863-20.8928L58.8721-20.8785C58.8156-20.778 58.759-20.692 58.8156-20.4768L58.8297-20.4337C58.8721-20.2903 58.8721-20.2903 58.8014-20.2186C58.6883-20.1181 58.5044-20.0895 58.363-20.1612C58.3206-20.1899 58.2781-20.2042 58.2781-20.2329C58.264-20.2759 58.2923-20.3477 58.3347-20.4337C58.4196-20.6059 58.3913-20.8785 58.3913-20.8928C58.3913-20.9071 58.3913-20.9215 58.3771-20.9358L58.3347-20.9358C58.3206-20.9215 58.1084-20.8211 58.0377-20.692C58.0094-20.6346 58.0094-20.5629 57.9953-20.5055C57.9953-20.4768 57.9953-20.4194 57.9811-20.4194C57.9245-20.4194 57.7124-20.5772 57.6983-20.6776C57.6841-20.7637 57.868-21.3949 58.0518-21.9544C58.0518-21.9831 58.0518-22.0118 58.0236-22.0118C58.0094-22.0261 57.9811-22.0261 57.967-22.0118C57.9528-21.9974 57.7407-21.7822 57.6417-21.4953C57.5993-21.3662 57.571-21.2371 57.571-21.1367C57.571-21.0936 57.5568-21.0363 57.5427-21.0076C57.5003-21.0219 57.4295-21.0506 57.2598-21.2658C57.076-21.5384 57.0052-21.7392 57.0335-21.8253C57.0618-21.897 57.175-22.0118 57.274-22.0978L57.4295-22.2556C57.5427-22.3847 57.5427-22.4995 57.5427-22.5138C57.5427-22.5282 57.5427-22.5425 57.5285-22.5425C57.5285-22.5569 57.5144-22.5712 57.5003-22.5712C57.4861-22.5569 57.2174-22.5425 57.0052-22.4134C56.9345-22.3704 56.8497-22.313 56.8072-22.313C56.7931-22.313 56.7789-22.3274 56.7507-22.3704C56.7365-22.4134 56.6941-22.4708 56.6517-22.5138C56.5951-22.5856 56.5385-22.6716 56.5244-22.7577C56.5102-22.8151 56.5385-22.8581 56.5526-22.8581C56.6941-22.9299 57.2032-23.0877 57.2032-23.0877C57.2315-23.102 57.2457-23.1164 57.2457-23.1451C57.2457-23.1737 57.2315-23.1881 57.2032-23.1881C57.2032-23.1881 57.0335-23.2024 56.8214-23.2455C56.6375-23.2885 56.3122-23.518 56.267-23.5467L56.0364-23.4176ZM19.515-61.5587C20.262-60.9146 22.374-59.2972 24.6584-59.2714L24.825-59.2714L24.825-63.909L22.5263-63.909L22.5263-66.1275L24.825-66.1275L24.825-68.412L27.0376-68.412L27.0376-66.1333L29.2788-66.1333L29.2788-63.9147L27.0534-63.9147L27.0534-59.2685L27.2258-59.2714C29.4929-59.3115 31.579-60.9103 32.3261-61.5501L32.3261-55.2736C31.579-55.9034 29.4929-57.5065 27.2258-57.5495L27.0534-57.5495L27.0534-52.5684L29.3435-52.5684L29.3435-50.3498L27.0505-50.3498L27.0505-47.6589L24.8236-47.6589L24.8236-50.3498L22.5823-50.3498L22.5823-52.5684L24.8265-52.5684L24.8265-57.5509L24.6584-57.5466C22.374-57.5209 20.262-55.9049 19.515-55.2708L19.515-61.5444L19.515-61.5587Z"/>
   <path class="monochrome-3 multicolor-3:custom hierarchical-3:primary SFSymbolsPreviewWireframe" d="M57.2017-40.0578C57.3063-39.7745 57.3594-39.4912 57.3594-39.2179C57.3636-38.6097 57.0799-38.0502 56.5942-37.6782C56.193-37.3734 55.147-36.7151 53.6998-36.4976C53.0693-36.4032 52.5392-36.2973 52.1523-36.1971C51.9804-36.157 51.8371-36.1155 51.7224-36.0783C51.7941-35.9639 51.8371-35.8351 51.8371-35.7063C51.8371-35.3486 51.5362-35.0624 51.1779-35.0624C50.8197-35.0624 50.5188-35.3486 50.5188-35.7063L50.5188-35.7349C50.5332-36.0926 50.6478-36.3645 50.9344-36.5935C51.049-36.665 51.1493-36.708 51.2926-36.7652C51.4359-36.8081 51.6221-36.8654 51.8371-36.9226C52.2669-37.0228 52.8544-37.1516 53.5422-37.2517C54.7888-37.4378 55.7631-38.0388 56.0497-38.2677C56.3506-38.511 56.4939-38.7972 56.5082-39.1692C56.5082-39.3409 56.4652-39.527 56.3936-39.7273C56.3219-39.899 56.1643-40.0278 55.8921-40.1423C55.6342-40.2281 55.2903-40.271 55.0324-40.271C54.9607-40.271 54.8747-40.271 54.8174-40.2567C54.2586-40.2138 53.5708-39.8418 53.0263-39.4983C53.0263-39.4983 49.6305-36.0926 49.3009-35.6634C48.9713-35.2198 48.0973-34.1179 46.4638-33.9891C46.5784-33.9319 46.6644-33.8174 46.6644-33.6886C46.6644-33.5026 46.5211-33.3595 46.3349-33.3595L46.1643-33.3595L46.6229-32.2863L48.2563-32.2863C48.4283-32.2863 48.5816-32.1432 48.5816-31.9715C48.5816-31.7998 48.4383-31.6424 48.252-31.6424L41.6179-31.6424C41.4388-31.6424 41.294-31.7855 41.294-31.9715C41.294-32.1432 41.4373-32.2863 41.6236-32.2863L43.1854-32.2863L43.6869-33.3452L43.5007-33.3452C43.3287-33.3452 43.1711-33.4883 43.1711-33.66C43.1711-33.7888 43.2571-33.889 43.3574-33.9462L43.2284-33.9605C43.2284-33.9605 41.1651-34.6045 39.9328-36.2501C39.5459-36.7509 38.285-38.468 37.2534-38.697L33.4706-39.1978C33.2557-39.2121 33.098-39.4125 33.1124-39.6271C33.141-39.8418 33.3273-39.9992 33.5566-39.9849L34.8318-39.8561C34.7172-39.9133 34.6455-40.0421 34.6599-40.1852C34.6742-40.3283 34.8032-40.4428 34.9464-40.4571C34.5739-40.5286 34.2157-41.1439 34.1727-41.516C34.1297-41.9023 34.2587-42.4032 34.2587-42.4032C34.2587-42.4032 34.316-42.0741 34.6169-41.7449C34.9035-41.4015 35.276-41.4158 35.276-41.4158C35.276-41.4158 35.2044-41.5017 35.19-41.9023C35.1184-42.4604 35.8635-43.1759 35.8921-42.9899C36.0354-41.9882 36.4509-41.6162 36.4509-41.6162C36.4509-41.6162 36.5799-41.6591 36.7948-42.0168C37.0098-42.3746 36.8665-42.8754 36.8665-42.8754C36.8665-42.8754 37.5113-42.4318 37.5113-41.8451C37.5113-41.2727 37.454-41.2441 37.4396-41.1582C37.411-41.0295 37.8981-41.3443 37.9698-41.7306C37.9984-41.9023 38.1561-41.0438 37.9841-40.7719C37.7262-40.3855 37.4683-40.128 37.2963-40.1136L37.282-40.1136C37.368-40.0421 37.4253-39.9419 37.411-39.8275C37.3966-39.6557 37.2534-39.5413 37.0957-39.5413C37.239-39.527 37.368-39.4983 37.4826-39.484C38.0271-39.3982 39.1018-39.3266 40.0618-39.2837L40.8069-39.2837C40.6779-39.3409 40.5919-39.4554 40.5919-39.5842C40.5919-39.7702 40.7352-39.9133 40.9215-39.9133L43.2284-39.9133L43.7299-40.6288C43.6439-40.686 43.5866-40.7862 43.5866-40.8864C43.5866-41.0724 43.7299-41.2155 43.9162-41.2155L44.6469-41.2155C44.475-41.3156 44.3747-41.4731 44.3747-41.6877C44.3747-41.9882 44.6183-42.2315 44.9335-42.2315C45.2487-42.2315 45.4923-41.9882 45.4923-41.6734C45.4923-41.4587 45.3777-41.3013 45.2201-41.2012L46.0225-41.2012C46.1944-41.2012 46.3377-41.0581 46.3377-40.8721C46.3377-40.7576 46.2661-40.6574 46.1658-40.6002L46.5527-39.899L49.0301-39.899C49.2164-39.899 49.3596-39.7559 49.3596-39.5699C49.3596-39.4268 49.2737-39.3123 49.1447-39.2694C49.9758-39.2694 50.5776-39.2837 50.7352-39.298C51.3169-39.3409 51.8385-39.5413 52.2397-39.7416C52.383-39.8418 52.5506-39.9562 52.7355-40.0707C53.323-40.4285 54.068-40.8291 54.8332-40.915C54.9192-40.9293 55.008-40.9293 55.1198-40.9293C55.4493-40.9293 55.8649-40.8864 56.2517-40.7433C56.6386-40.6002 57.0398-40.3283 57.2146-39.8561L57.2017-40.0578Z"/>
  </g>
  <g id="Ultralight-S" transform="matrix(1 0 0 1 516.35 696)">
   <path class="monochrome-0 multicolor-0:custom hierarchical-0:tertiary SFSymbolsPreviewWireframe" d="M51.6199-69L15.65-69L15.65-31.4846C15.65-28.2904 16.9403-25.1421 18.3477-22.1598C20.5495-17.4839 25.2461-11.5556 30.5121-7.73391C30.8596-7.48291 31.2097-7.24135 31.5585-7.0052C31.6784-6.92423 31.797-6.85271 31.9155-6.77579C32.1444-6.62734 32.3733-6.4789 32.6008-6.33586C32.7507-6.24544 32.887-6.16313 33.0368-6.07946C33.2412-5.95396 33.4456-5.83655 33.65-5.71915L34.0996-5.46815L34.6718-5.15777C34.8217-5.0768 34.9716-5.00933 35.1214-4.92836C35.3122-4.83389 35.4893-4.75293 35.6664-4.65846L36.1161-4.44255L36.6474-4.19964L37.0698-4.01072L37.9282-3.64636C40.8031-2.45882 43.0239-2 43.6507-2L43.6643-2C44.3319-2.01349 46.8389-2.55328 50.0272-3.94324C50.2452-4.0377 50.4768-4.14566 50.6948-4.24013L50.9264-4.34808L51.5532-4.64497L51.8802-4.8069C52.1254-4.92836 52.3707-5.0633 52.6295-5.18476C52.8748-5.3197 53.1064-5.44116 53.3517-5.5761L53.7604-5.81901L54.3735-6.18337L54.7687-6.42627C55.0003-6.56122 55.2183-6.70966 55.4363-6.8581C55.5589-6.92558 55.6679-7.00655 55.7769-7.07402C56.1175-7.30343 56.4582-7.53284 56.7852-7.77575C62.058-11.5948 66.745-17.5189 68.9523-22.2016C70.3556-25.184 71.65-28.3282 71.65-31.5265L71.65-69L51.6213-69L51.6199-69Z"/>
   <path class="monochrome-1 multicolor-1:white hierarchical-1:secondary SFSymbolsPreviewWireframe" d="M70.65-32.1597C70.3779-32.0592 70.1466-31.9426 69.952-31.8247C69.7126-31.6733 69.5302-31.5246 69.4132-31.4161C69.3547-31.3625 69.3126-31.3183 69.2867-31.2901C69.2731-31.2767 69.2636-31.2633 69.2595-31.258C69.2595-31.2446 69.2568-31.2446 69.2554-31.2446L68.8744-30.7622L68.4935-31.2446C68.4527-31.2982 67.5003-32.4102 65.6499-32.3969C64.6839-32.3969 63.9628-32.0887 63.4866-31.7939C63.2553-31.6465 63.0648-31.4991 62.9559-31.3785L62.8335-31.2446L62.8063-31.2044L62.8063-31.191L62.4253-30.722L62.0443-31.2044C62.0035-31.258 61.0511-32.3701 59.2143-32.3567C58.2483-32.3567 57.5408-32.0619 57.0782-31.7671C56.8469-31.6197 56.6701-31.4723 56.5612-31.3517C56.5068-31.2982 56.466-31.258 56.4388-31.2178L56.4115-31.191L56.0306-30.6952L55.636-31.191C55.5952-31.2312 54.6428-32.3567 52.806-32.3433C51.772-32.3433 51.1325-32.2093 50.7788-32.1021C50.6019-32.0485 50.493-31.9949 50.425-31.9547L50.4114-31.9413C50.3298-31.7939 50.0032-31.1776 50.0032-29.5831C50.0032-28.6184 50.3162-27.9217 50.6155-27.4527C50.7651-27.2115 50.9148-27.0374 51.0237-26.9302C51.0781-26.8632 51.1189-26.823 51.1461-26.8096L51.1733-26.7828L51.1869-26.7694L51.6903-26.3808L51.1869-25.9922C51.1597-25.9655 50.0032-25.0677 50.0032-23.2187C50.0032-22.254 50.3162-21.5573 50.6155-21.0883C50.7651-20.8605 50.9148-20.6863 51.0237-20.5658C51.0781-20.5122 51.1325-20.472 51.1597-20.4452L51.2005-20.4184L51.2005-20.405L51.6903-20.0298L51.2005-19.6412C51.1461-19.5876 50.0168-18.6229 50.0168-16.8141C50.0168-15.8494 50.3162-15.1527 50.6155-14.6837C50.7651-14.4425 50.9148-14.2683 51.0237-14.1612C51.0781-14.0942 51.1325-14.0674 51.1597-14.0406L51.2005-14.0138L51.6903-13.6252L51.2005-13.2366C51.1733-13.2098 50.0168-12.2585 50.0168-10.4095C50.0168-9.4582 50.3298-8.76146 50.6291-8.2925C50.7788-8.05133 50.9284-7.87714 51.0373-7.76995C51.0917-7.71636 51.1461-7.67616 51.1733-7.64937L51.2005-7.62257L51.2141-7.60917L51.7039-7.234L51.2141-6.84544C51.1733-6.80524 50.4794-6.2023 50.1801-5.06341C46.9283-3.60294 44.316-3 43.6765-3C43.0915-3 40.8329-3.50915 37.9213-4.74184C37.6764-6.08171 36.8464-6.80524 36.792-6.84544L36.3022-7.22061L36.792-7.59577L36.8056-7.59577L36.8328-7.62257L36.9553-7.74316C37.0777-7.85035 37.2274-8.02453 37.3771-8.26571C37.6764-8.73466 37.9893-9.4314 37.9893-10.3827C38.0029-12.2183 36.8328-13.183 36.8056-13.2098L36.3294-13.585L36.8192-13.9602L36.8328-13.9602L36.8736-13.987L36.9961-14.1076C37.1185-14.2148 37.2682-14.3889 37.4179-14.6301C37.7172-15.0991 38.0301-15.7958 38.0301-16.7471C38.0437-18.564 36.9009-19.5207 36.8464-19.5742L36.3702-19.9561L36.86-20.3313L36.8736-20.3313L36.9009-20.3581C36.9281-20.3782 36.9825-20.4251 37.0369-20.4787C37.1458-20.5859 37.2954-20.76 37.4451-20.9945C37.7444-21.4635 38.0573-22.1682 38.0573-23.1249C38.0573-24.9605 36.9009-25.8717 36.8736-25.8851L36.3702-26.2736L36.8736-26.6622C36.8736-26.6622 36.8736-26.6702 36.8804-26.6756L36.9077-26.7024C36.9349-26.7158 36.9757-26.756 37.0301-26.823C37.139-26.9302 37.2886-27.1043 37.4383-27.3321C37.7376-27.8011 38.0505-28.4978 38.0505-29.4625C38.0505-31.0436 37.7335-31.6733 37.6424-31.8153L37.6247-31.8287C37.5566-31.8663 37.4478-31.9091 37.2709-31.9761C36.9172-32.0833 36.2777-32.2173 35.2437-32.2173C33.3933-32.2173 32.4409-31.1052 32.4001-31.0516L32.0055-30.5559L31.6245-31.0516C31.6245-31.065 31.6109-31.0784 31.5973-31.0918L31.4749-31.2124C31.366-31.3196 31.1891-31.467 30.9578-31.6144C30.4912-31.9091 29.7877-32.2173 28.8217-32.2173C26.9713-32.2173 26.0325-31.1052 25.9781-31.0516L25.5972-30.5693L25.2026-31.0516L25.1985-31.061L25.1713-31.1012C25.1441-31.128 25.1033-31.1682 25.0352-31.2218C24.9128-31.329 24.7359-31.4764 24.491-31.6237C24.0012-31.9185 23.2883-32.2133 22.3141-32.2133C20.4719-32.2267 19.5249-31.1146 19.48-31.061L19.099-30.5786L18.7045-31.061L18.7045-31.0744L18.6773-31.1012L18.5548-31.2218C18.4324-31.329 18.2555-31.4764 18.0106-31.6237C17.6704-31.8247 17.2214-32.0311 16.65-32.1383L16.65-43.6612C17.2214-43.7684 17.6704-43.9693 18.0106-44.177C18.2555-44.3244 18.4324-44.4718 18.5548-44.579L18.6773-44.6996L18.6909-44.7398L19.0786-45.2221L19.4596-44.7398C19.5004-44.6862 20.4528-43.5741 22.2937-43.5741C23.2597-43.5741 23.9808-43.8823 24.457-44.177C24.691-44.3378 24.8788-44.4852 24.9876-44.5924C25.0557-44.646 25.0965-44.6996 25.1237-44.7264C25.1373-44.7398 25.1373-44.7532 25.1509-44.7532L25.1509-44.792L25.5319-45.2744L25.9128-44.792C25.9672-44.7384 26.906-43.6263 28.7564-43.6263C29.7252-43.6263 30.4299-43.9265 30.8925-44.2293C31.1238-44.3767 31.3007-44.5241 31.4096-44.6312L31.532-44.7559L31.5592-44.788L31.9402-45.2972L32.3347-44.8014C32.3892-44.7478 33.328-43.6357 35.1784-43.6357C36.2124-43.6357 36.8519-43.7697 37.2097-43.8769C37.4002-43.9439 37.509-43.9975 37.5635-44.0243L37.5771-44.0377C37.6587-44.1851 37.9852-44.8014 37.9852-46.3959C37.9852-47.3472 37.6723-48.0573 37.373-48.5263C37.2233-48.754 37.0736-48.9282 36.9648-49.0354C36.9104-49.0944 36.856-49.1426 36.8287-49.1614C36.8151-49.1748 36.8015-49.1748 36.8015-49.1882L36.7934-49.2016L36.29-49.5901L36.7934-49.9653C36.807-49.9921 37.9771-50.8898 37.9635-52.7388C37.9635-53.6901 37.6546-54.3869 37.3512-54.8558C37.2015-55.097 37.0519-55.2712 36.943-55.3784C36.8886-55.432 36.8383-55.4722 36.807-55.499L36.7662-55.5258L36.7662-55.5392L36.2763-55.9143L36.7662-56.3029C36.8342-56.3565 37.9635-57.3212 37.9499-59.13C37.9499-60.0947 37.6505-60.7915 37.3512-61.2604C37.2015-61.4882 37.0519-61.6624 36.943-61.783C36.8886-61.85 36.8478-61.8902 36.807-61.917L36.7798-61.9438L36.7525-61.9438L36.2627-62.3189L36.7525-62.6941C36.7798-62.7075 37.9499-63.6722 37.9363-65.5212C37.9363-66.4725 37.6369-67.1693 37.3376-67.6382C37.2424-67.7856 37.1607-67.9062 37.0655-68L50.859-68C50.7774-67.9062 50.6821-67.7856 50.5869-67.6382C50.2876-67.1693 49.9842-66.4725 49.9842-65.5212C49.9787-63.6722 51.1407-62.7209 51.1679-62.6941L51.6522-62.3055L51.1624-61.9304L51.1352-61.9304C51.1216-61.9304 51.108-61.917 51.0944-61.9036L50.9665-61.783C50.8577-61.6758 50.708-61.5016 50.5583-61.2604C50.2454-60.7915 49.9461-60.0947 49.9461-59.1434C49.9325-57.3212 51.0754-56.3699 51.1298-56.3163L51.606-55.9277L51.1162-55.5526L51.1026-55.5392C51.1026-55.5392 51.0754-55.5258 51.0754-55.5124L50.9393-55.3918C50.8305-55.2846 50.6808-55.1104 50.5311-54.8692C50.2182-54.4003 49.9189-53.7035 49.9189-52.7522C49.9189-50.9032 51.0754-50.0055 51.089-49.9787L51.5924-49.6035L51.089-49.215L51.0754-49.215L51.0481-49.1882L50.9121-49.0676C50.8032-48.947 50.6536-48.7728 50.5039-48.545C50.2046-48.0761 49.8917-47.3793 49.8917-46.4146C49.8917-44.8336 50.2046-44.2038 50.2998-44.0698L50.3134-44.0564C50.3679-44.0162 50.4767-43.9626 50.6536-43.9091C51.0073-43.7885 51.6468-43.6679 52.6808-43.6679C54.5176-43.6545 55.47-44.7666 55.5108-44.8202L55.9054-45.3159L56.2864-44.8068L56.2864-44.792L56.3136-44.7559L56.436-44.6353C56.5449-44.5281 56.7218-44.3807 56.9531-44.2333C57.4157-43.9385 58.1232-43.6438 59.0892-43.6438C60.9396-43.6438 61.8784-44.7559 61.9328-44.8094L62.3137-45.2918L62.7083-44.8161L62.7083-44.792L62.7355-44.7652L62.858-44.6446C62.9804-44.5375 63.1573-44.3901 63.3886-44.2427C63.8648-43.9479 64.5859-43.6397 65.5519-43.6397C67.4023-43.6397 68.3547-44.7518 68.3955-44.8054L68.7765-45.2878L69.1711-44.8054L69.1983-44.7693L69.3207-44.6487C69.4296-44.5415 69.62-44.3941 69.8513-44.2333C70.0418-44.1127 70.2731-44.0055 70.5452-43.8983L70.5452-32.0404L70.65-32.1597Z"/>
   <path class="monochrome-2 multicolor-2:white hierarchical-2:primary SFSymbolsPreviewWireframe" d="M64.6249-27.6076C64.5328-27.3335 64.3656-27.2191 64.093-27.0355C64.0509-27.0089 64.0075-26.977 63.9653-26.9491C63.6322-26.7096 63.149-26.6431 63.1424-26.6431C63.12-26.6298 63.1029-26.6165 63.1029-26.5899C63.1069-26.5633 63.1253-26.55 63.1477-26.55L63.4979-26.55C63.6849-26.55 63.9759-26.6032 64.1233-26.6298L64.0627-26.5101C64.0232-26.4569 63.9311-26.417 63.7731-26.3238C63.6546-26.2573 63.5098-26.1908 63.3254-26.0711C62.9304-25.8449 62.8251-25.8449 62.812-25.8449L62.7988-25.8449C62.7725-25.8449 62.7461-25.8449 62.7461-25.8183C62.733-25.805 62.733-25.7784 62.7593-25.7651L62.7725-25.7518C62.812-25.7252 62.9304-25.6986 63.0094-25.6986C63.0884-25.6986 63.4571-25.7784 63.6283-25.805L63.5756-25.6587C63.5493-25.5523 63.4044-25.3394 63.2728-25.233C63.1543-25.1399 62.6408-25.0335 62.4433-24.9935C62.417-24.9935 62.4038-24.9669 62.4038-24.9403C62.4038-24.9137 62.417-24.9004 62.4433-24.8871C62.4433-24.8871 62.7988-24.8339 62.9963-24.7408C63.0226-24.7275 63.0358-24.7009 63.0489-24.6743C63.0753-24.5812 63.0094-24.4348 62.9699-24.3816C62.9173-24.3417 62.6145-24.1289 62.4433-24.1023C62.2458-24.0623 62.0746-24.0357 62.0746-24.0357C62.0615-24.0224 62.0351-24.0091 62.0351-23.9825C62.0351-23.9692 62.0483-23.9426 62.0746-23.9426C62.0746-23.9426 62.5486-23.7963 62.6803-23.7298C62.6803-23.7165 62.7066-23.6899 62.6935-23.6233C62.6671-23.5435 62.6145-23.4637 62.5618-23.3972C62.5355-23.344 62.496-23.3041 62.4696-23.2642C62.4433-23.211 62.4301-23.211 62.4038-23.211C62.3643-23.211 62.2853-23.2509 62.2195-23.3041C62.0351-23.4105 61.7718-23.4371 61.7587-23.4371C61.7587-23.4371 61.7323-23.4238 61.7323-23.4105C61.7192-23.3972 61.7192-23.3839 61.7192-23.3706C61.7192-23.3573 61.7192-23.2509 61.8113-23.1311L61.9561-22.9848C62.0351-22.8917 62.1536-22.7986 62.1668-22.7321C62.1931-22.6655 62.1273-22.466 61.9561-22.2265C61.7981-22.0137 61.7323-21.9871 61.6797-21.9871C61.6665-22.0004 61.6665-22.0536 61.6665-22.1068C61.6665-22.1866 61.6402-22.3064 61.6007-22.4261C61.5085-22.6921 61.311-22.905 61.2978-22.905C61.2847-22.9316 61.2583-22.9316 61.2452-22.9183C61.232-22.905 61.2188-22.8784 61.2188-22.8651C61.3768-22.3463 61.5612-21.7609 61.548-21.6811C61.5348-21.5747 61.3373-21.4417 61.2715-21.4417C61.2583-21.4417 61.2583-21.4949 61.2452-21.5215C61.2452-21.5747 61.232-21.6279 61.2057-21.6811C61.153-21.8009 60.9555-21.894 60.9292-21.894C60.916-21.9073 60.8897-21.9073 60.8897-21.894C60.8633-21.894 60.8633-21.8807 60.8633-21.8541C60.8633-21.8541 60.837-21.588 60.916-21.4284C60.9555-21.3486 60.9818-21.282 60.9687-21.2421C60.9687-21.2155 60.9423-21.2022 60.8897-21.1756C60.7448-21.1091 60.5869-21.1357 60.4815-21.2288C60.4025-21.282 60.4025-21.282 60.442-21.4284L60.4552-21.4683C60.5079-21.6545 60.4552-21.7476 60.4025-21.8408L60.3894-21.8541C60.363-21.894 60.3367-21.9073 60.3104-21.9073C60.2445-21.9073 60.1919-21.8142 60.1787-21.7875L60.1787-21.7476C60.205-21.6013 60.2577-21.2155 60.2182-21.1091C60.1919-21.0293 60.1129-21.016 59.9812-21.016C59.9417-21.016 59.9022-21.016 59.8759-21.0027C59.7969-20.9894 59.7047-21.0293 59.652-21.0426C59.652-21.2155 59.6652-22.0137 59.652-22.2398C59.6389-22.466 59.6915-22.5724 59.7442-22.599C59.8364-22.6522 60.3235-22.9848 60.6527-23.5834L60.9818-24.1821C61.3637-24.9004 62.0088-26.0844 62.3906-26.6165C62.496-26.4968 62.6671-26.4436 62.812-26.4968C62.9699-26.55 63.0753-26.7096 63.0621-26.8826L63.0489-27.0954C63.5888-27.3748 64.4182-27.8537 64.5894-27.9734C64.6289-28 64.6421-28 64.6421-28C64.6816-27.9468 64.5631-27.561 64.5183-27.428L64.6249-27.6076ZM62.6423-16.0843C62.5987-16.0323 62.5345-16 62.4652-16C62.4459-16 62.4293-16.0028 62.419-16.0056L61.1612-16.3189C61.0586-16.347 60.9816-16.4383 60.9816-16.5507C60.9687-16.6603 61.0329-16.7614 61.1227-16.8036L61.3794-16.9118L59.7366-18.5133C59.6596-18.5836 59.634-18.6819 59.6596-18.7803C59.6853-18.8786 59.7495-18.9489 59.8521-18.977L60.7634-19.1877L59.6596-20.3818L59.6596-20.424L59.6725-20.8876L59.6725-21L59.7623-20.9579C59.8008-20.9438 59.8393-20.9298 59.865-20.8876L61.4179-19.1877C61.4821-19.1174 61.5078-19.0191 61.4821-18.9208C61.4564-18.8224 61.3794-18.7522 61.2896-18.7381L60.404-18.5274L61.6618-17.2911L61.7388-17.6002C61.7644-17.7126 61.8543-17.7828 61.957-17.7828C62.0468-17.7828 62.1366-17.7126 62.1751-17.6142L62.6372-16.2796C62.6628-16.1953 62.65-16.0969 62.5987-16.0267L62.6423-16.0843ZM59.65-14.7618C59.5996-14.8588 59.5179-14.979 59.3912-15.1021C59.1923-15.2962 58.9743-15.3193 58.8912-15.3193C58.8599-15.3193 58.8421-15.3121 58.8394-15.3121C58.8258-15.3121 58.8094-15.2976 58.8054-15.2831C58.7985-15.2686 58.8026-15.2469 58.8094-15.2339C58.8122-15.2339 58.883-15.1296 58.9075-14.8863C58.9539-14.5025 58.6718-14.0666 58.5697-14C58.3708-14.7574 58.0329-15.0138 58.0193-15.0224C58.0111-15.0311 58.0016-15.0311 57.992-15.0311C57.9852-15.0311 57.9784-15.0311 57.973-15.0268C57.9457-15.0167 57.864-14.9573 57.7278-14.6546C57.6324-14.4432 57.6733-14.2028 57.7141-14.0579C57.5643-14.1651 57.3054-14.3968 57.2782-14.6923C57.2373-15.0688 57.2509-15.1412 57.2646-15.1904L57.2646-15.2223C57.2646-15.244 57.2646-15.2657 57.2509-15.2802C57.2373-15.2947 57.2237-15.3005 57.2101-15.3005C57.1147-15.3005 56.8695-15.0514 56.8422-14.7762C56.8014-14.811 56.7469-14.8805 56.706-14.9848C56.6651-15.0804 56.6107-15.2657 56.6924-15.4424C56.8014-15.7176 57.033-15.9261 57.1692-16L59.0765-16C59.3081-15.8986 59.5533-15.5192 59.6078-15.2672C59.635-15.0934 59.635-14.9051 59.635-14.7603L59.65-14.7618ZM56.568-18.4854L54.9433-16.9025L55.1968-16.7942C55.2931-16.7526 55.3526-16.6526 55.3438-16.5443C55.3362-16.4332 55.2652-16.3416 55.1663-16.3166L53.9294-16.0056C53.9167-16.0028 53.899-16 53.8787-16C53.8128-16 53.7494-16.0319 53.7063-16.0833C53.6506-16.1569 53.6354-16.2499 53.6645-16.3374L54.1208-17.6495C54.1588-17.7467 54.2437-17.8106 54.3324-17.8106C54.4465-17.8023 54.5314-17.7301 54.5567-17.6204L54.629-17.3107L55.8761-18.5326L54.9978-18.7367C54.9116-18.7645 54.8394-18.8339 54.814-18.9311C54.7861-19.0283 54.8115-19.1394 54.8748-19.2088L56.4147-20.8889C56.44-20.9167 56.473-20.9445 56.5161-20.9583L56.6137-21L56.6162-20.8889C56.62-20.7362 56.6289-20.5834 56.6327-20.4307L56.6327-20.3891L55.5465-19.2088L56.454-19.0006C56.5427-18.9867 56.6187-18.9034 56.6403-18.8062C56.6656-18.709 56.6403-18.5979 56.5769-18.5285L56.568-18.4854ZM57.0997-16.802L59.2003-16.802C59.4474-16.802 59.65-16.662 59.65-16.49C59.65-16.32 59.4489-16.18 59.2003-16.18L57.0997-16.18C56.8511-16.18 56.65-16.32 56.65-16.5C56.65-16.68 56.8511-16.82 57.0997-16.82L57.0997-16.802ZM56.65-26.497C56.65-26.669 56.8511-26.81 57.0983-26.81L59.1989-26.81C59.446-26.81 59.65-26.67 59.65-26.5C59.65-26.33 59.446-26.19 59.1989-26.19L57.0983-26.19C56.8511-26.19 56.65-26.33 56.65-26.51L56.65-26.497ZM57.8906-26L59.4106-26C59.4722-25.3954 59.65-23.4844 59.65-21.6179C59.65-19.5322 59.4222-17.3439 59.3967-17.0998L59.385-17L57.9138-17L57.9057-17.0943C57.9057-17.1151 57.65-19.3963 57.65-21.6179C57.65-23.5205 57.8476-25.4675 57.894-26L57.8906-26ZM62.071-26.7658C61.9426-26.7658 61.8387-26.8303 61.8004-26.9336C61.7699-27.0305 61.8127-27.1325 61.9028-27.188L63.1485-27.9563C63.2249-28.0053 63.3411-28.0144 63.4328-27.9769C63.5031-27.9511 63.555-27.8995 63.5764-27.8349C63.5826-27.822 63.5841-27.7962 63.5841-27.7833L63.6498-26.492C63.6544-26.3887 63.5795-26.2984 63.4664-26.2725C63.3548-26.2467 63.2219-26.2725 63.1531-26.3629L62.959-26.5824L61.831-24.6973C61.7806-24.6198 61.6782-24.5681 61.5666-24.5681C61.4535-24.5681 61.3526-24.6198 61.2991-24.7102L60.7887-25.5624L59.7402-24L59.7172-24.2582L59.6714-24.6973L59.65-24.8909L60.5518-26.2209C60.6129-26.2984 60.7046-26.35 60.8116-26.35C60.9338-26.35 61.0256-26.2984 61.0714-26.208L61.5758-25.3945L62.4317-26.8278L62.0801-26.8148L62.071-26.7658ZM57.5335-27.7553C57.5335-27.7553 57.4609-27.8619 57.4376-28.1088C57.3897-28.4974 57.6746-28.9357 57.7759-29C57.9759-28.2374 58.3156-27.9774 58.3293-27.9671C58.343-27.9569 58.3567-27.9554 58.3704-27.9627C58.3841-27.973 58.48-28.0329 58.6033-28.3426C58.6855-28.553 58.6581-28.7955 58.617-28.9416C58.754-28.8305 59.0142-28.5997 59.0553-28.2988C59.0964-27.9189 59.0827-27.8459 59.069-27.7977L59.0553-27.7684C59.0553-27.7436 59.0553-27.7246 59.069-27.71C59.069-27.6954 59.0964-27.6896 59.1101-27.6896C59.1923-27.6896 59.4389-27.9379 59.4799-28.2155C59.5073-28.1819 59.5621-28.1088 59.6032-28.008C59.6306-27.9204 59.6854-27.7305 59.6169-27.5551C59.4936-27.2776 59.2608-27.073 59.1238-27L57.2198-27C56.9869-27.1023 56.7404-27.4821 56.6856-27.7451C56.6445-27.9058 56.6445-28.1103 56.6582-28.2564C56.713-28.1687 56.7952-28.0373 56.9185-27.9204C57.1102-27.7305 57.3294-27.7012 57.4253-27.7012L57.4664-27.7012C57.4801-27.7159 57.4938-27.7159 57.5075-27.7451C57.5075-27.7597 57.5075-27.7743 57.4938-27.7889L57.5335-27.7553ZM55.7284-25.3454L56.228-26.1578C56.2803-26.2466 56.3771-26.2974 56.4894-26.2974C56.597-26.2974 56.7-26.2466 56.7507-26.1705L57.65-24.8631L57.63-24.6854L57.5839-24.2539L57.5578-24L56.5047-25.5358L55.9913-24.7108C55.9375-24.6346 55.8375-24.5839 55.7253-24.5839C55.6177-24.5839 55.5101-24.6346 55.464-24.7235L54.3264-26.5766L54.1419-26.3609C54.0804-26.2847 53.9421-26.2466 53.8345-26.2847C53.7269-26.3228 53.65-26.4116 53.65-26.5132L53.7115-27.7825C53.7115-27.7952 53.7269-27.8079 53.7269-27.8332C53.7576-27.8967 53.8037-27.9475 53.8806-27.9729C53.9728-28.0109 54.0958-28.0109 54.1727-27.9602L55.4332-27.2113C55.5255-27.1605 55.5716-27.059 55.5409-26.9701C55.4947-26.8559 55.4025-26.7924 55.2641-26.7924L54.9106-26.8051L55.7868-25.3962L55.7284-25.3454ZM53.2885-24.2076C53.2545-24.261 53.189-24.4079 53.2165-24.5013C53.2296-24.5281 53.2427-24.5548 53.282-24.5681C53.4784-24.6616 53.8321-24.715 53.8321-24.715C53.8582-24.7284 53.8713-24.7417 53.8713-24.7684C53.8713-24.7951 53.8582-24.8218 53.8321-24.8218C53.6487-24.8619 53.1379-24.9687 53.02-25.0622C52.876-25.169 52.745-25.3827 52.7057-25.4895L52.6664-25.6364C52.8367-25.6097 53.2165-25.5296 53.2951-25.5296C53.3867-25.5296 53.4915-25.5696 53.5439-25.583C53.557-25.583 53.557-25.5963 53.5701-25.5963C53.5963-25.6097 53.5963-25.6364 53.5832-25.6631C53.5701-25.6898 53.5439-25.6898 53.5308-25.6898C53.5177-25.6898 53.4129-25.6765 53.0331-25.9035C52.8498-26.0237 52.7057-26.0904 52.5878-26.1572C52.4306-26.2373 52.339-26.2907 52.3128-26.3441L52.2604-26.4643C52.4045-26.4376 52.6926-26.3709 52.8891-26.3709L53.2427-26.3709C53.2689-26.3709 53.282-26.3976 53.282-26.4109C53.282-26.4376 53.2689-26.4643 53.2427-26.4643C53.2427-26.4643 52.7581-26.5445 52.4306-26.7715L52.2997-26.8649C52.0246-27.0519 51.8544-27.1721 51.7758-27.4391C51.7365-27.5727 51.6186-27.9599 51.6579-28C51.6579-28 51.6841-28 51.7103-27.9733C51.8937-27.8665 52.7057-27.3857 53.2427-27.1053L53.2296-26.8916C53.2296-26.718 53.3213-26.5578 53.4915-26.5044C53.6487-26.451 53.8059-26.5044 53.9106-26.6246C54.2905-26.1038 54.9322-24.9153 55.312-24.1942C55.4561-23.9271 55.574-23.7135 55.6526-23.5799C55.9931-22.979 56.4646-22.6452 56.5563-22.5918C56.6087-22.5784 56.6611-22.4582 56.648-22.2312C56.6349-22.0176 56.648-21.2163 56.648-21.0427C56.5956-21.0294 56.5039-20.9893 56.4253-21.0027C56.3991-21.016 56.3598-21.016 56.3336-21.016C56.2027-21.016 56.1241-21.0294 56.0979-21.1095C56.0586-21.2297 56.111-21.617 56.1372-21.7505C56.1503-21.7638 56.1372-21.7772 56.1372-21.7906C56.1241-21.8173 56.0717-21.9107 56.0062-21.9107C55.98-21.9107 55.9538-21.8974 55.9276-21.8573L55.9145-21.844C55.8621-21.7505 55.8097-21.6704 55.8621-21.4701L55.8752-21.43C55.9145-21.2965 55.9145-21.2965 55.849-21.2297C55.7443-21.1362 55.574-21.1095 55.443-21.1763C55.4037-21.203 55.3644-21.2163 55.3644-21.2431C55.3513-21.2831 55.3775-21.3499 55.4168-21.43C55.4954-21.5902 55.4692-21.844 55.4692-21.8573C55.4692-21.8707 55.4692-21.884 55.4561-21.8974L55.4168-21.8974C55.4037-21.884 55.2073-21.7906 55.1418-21.6704C55.1156-21.617 55.1156-21.5502 55.1025-21.4968C55.1025-21.4701 55.1025-21.4167 55.0894-21.4167C55.037-21.4167 54.8405-21.5635 54.8274-21.657C54.8143-21.7371 54.9846-22.3247 55.1549-22.8455C55.1549-22.8722 55.1549-22.8989 55.1287-22.8989C55.1156-22.9123 55.0894-22.9123 55.0763-22.8989C55.0632-22.8856 54.8667-22.6852 54.7751-22.4182C54.7358-22.298 54.7096-22.1778 54.7096-22.0843C54.7096-22.0443 54.6965-21.9909 54.6834-21.9642C54.6441-21.9775 54.5786-22.0042 54.4214-22.2045C54.2512-22.4582 54.1857-22.6452 54.2119-22.7253C54.2381-22.7921 54.3428-22.8989 54.4345-22.979L54.5786-23.1259C54.6834-23.2461 54.6834-23.3529 54.6834-23.3663C54.6834-23.3796 54.6834-23.393 54.6703-23.393C54.6703-23.4063 54.6572-23.4197 54.6441-23.4197C54.631-23.4063 54.3821-23.393 54.1857-23.2728C54.1202-23.2327 54.0416-23.1793 54.0023-23.1793C53.9892-23.1793 53.9761-23.1927 53.9499-23.2327C53.9368-23.2728 53.8975-23.3262 53.8582-23.3663C53.8059-23.4331 53.7535-23.5132 53.7404-23.5933C53.7273-23.6467 53.7535-23.6868 53.7666-23.6868C53.8975-23.7535 54.369-23.9004 54.369-23.9004C54.3952-23.9138 54.4083-23.9271 54.4083-23.9538C54.4083-23.9806 54.3952-23.9939 54.369-23.9939C54.369-23.9939 54.2119-24.0073 54.0154-24.0473C53.8452-24.0874 53.5439-24.301 53.502-24.3277L53.2885-24.2076ZM19.65-60.3954C20.3498-59.7747 22.328-58.2159 24.4678-58.1911L24.6239-58.1911L24.6239-62.6604L22.4707-62.6604L22.4707-64.7985L24.6239-64.7985L24.6239-67L26.6963-67L26.6963-64.804L28.7957-64.804L28.7957-62.6659L26.7111-62.6659L26.7111-58.1884L26.8726-58.1911C28.9962-58.2297 30.9502-59.7705 31.65-60.3871L31.65-54.3384C30.9502-54.9454 28.9962-56.4903 26.8726-56.5317L26.7111-56.5317L26.7111-51.7314L28.8562-51.7314L28.8562-49.5933L26.7084-49.5933L26.7084-47L24.6225-47L24.6225-49.5933L22.5232-49.5933L22.5232-51.7314L24.6252-51.7314L24.6252-56.5331L24.4678-56.5289C22.328-56.5041 20.3498-54.9468 19.65-54.3357L19.65-60.3816L19.65-60.3954Z"/>
   <path class="monochrome-3 multicolor-3:custom hierarchical-3:primary SFSymbolsPreviewWireframe" d="M54.5005-40.1362C54.5997-39.8623 54.65-39.5883 54.65-39.3241C54.654-38.7361 54.3849-38.1952 53.9242-37.8355C53.5436-37.5408 52.5515-36.9044 51.1788-36.6941C50.5807-36.6028 50.0779-36.5004 49.7109-36.4036C49.5478-36.3649 49.4119-36.3247 49.3032-36.2888C49.3711-36.1781 49.4119-36.0536 49.4119-35.9291C49.4119-35.5832 49.1265-35.3065 48.7867-35.3065C48.4469-35.3065 48.1615-35.5832 48.1615-35.9291L48.1615-35.9567C48.1751-36.3026 48.2838-36.5655 48.5556-36.7868C48.6644-36.856 48.7595-36.8975 48.8954-36.9528C49.0313-36.9943 49.208-37.0497 49.4119-37.105C49.8196-37.2019 50.3769-37.3264 51.0292-37.4232C52.2117-37.6031 53.1359-38.1841 53.4077-38.4055C53.6931-38.6407 53.829-38.9174 53.8426-39.2771C53.8426-39.4431 53.8019-39.6229 53.7339-39.8166C53.6659-39.9826 53.5164-40.1071 53.2582-40.2178C53.0136-40.3008 52.6874-40.3423 52.4427-40.3423C52.3748-40.3423 52.2932-40.3423 52.2389-40.3285C51.7088-40.287 51.0564-39.9273 50.54-39.5953C50.54-39.5953 47.3188-36.3026 47.0062-35.8876C46.6936-35.4587 45.8646-34.3934 44.3152-34.2689C44.4239-34.2136 44.5055-34.1029 44.5055-33.9784C44.5055-33.7985 44.3695-33.6602 44.1929-33.6602L44.0311-33.6602L44.466-32.6226L46.0154-32.6226C46.1785-32.6226 46.324-32.4842 46.324-32.3182C46.324-32.1522 46.188-32 46.0114-32L39.7186-32C39.5487-32 39.4115-32.1383 39.4115-32.3182C39.4115-32.4842 39.5474-32.6226 39.7241-32.6226L41.2055-32.6226L41.6812-33.6463L41.5045-33.6463C41.3414-33.6463 41.1919-33.7847 41.1919-33.9507C41.1919-34.0752 41.2735-34.172 41.3686-34.2274L41.2463-34.2412C41.2463-34.2412 39.2891-34.8638 38.1203-36.4548C37.7533-36.939 36.5573-38.5992 35.5787-38.8205L31.9906-39.3047C31.7868-39.3186 31.6373-39.5122 31.6509-39.7198C31.678-39.9273 31.8547-40.0795 32.0722-40.0656L33.2818-39.9411C33.1731-39.9965 33.1051-40.121 33.1187-40.2593C33.1323-40.3977 33.2546-40.5083 33.3905-40.5222C33.0372-40.5914 32.6974-41.1862 32.6566-41.5459C32.6158-41.9195 32.7382-42.4037 32.7382-42.4037C32.7382-42.4037 32.7925-42.0855 33.0779-41.7673C33.3498-41.4353 33.7031-41.4491 33.7031-41.4491C33.7031-41.4491 33.6352-41.5321 33.6216-41.9195C33.5536-42.459 34.2604-43.1508 34.2876-42.9709C34.4235-42.0025 34.8176-41.6428 34.8176-41.6428C34.8176-41.6428 34.9399-41.6843 35.1438-42.0302C35.3477-42.376 35.2118-42.8602 35.2118-42.8602C35.2118-42.8602 35.8234-42.4314 35.8234-41.8641C35.8234-41.3108 35.769-41.2831 35.7554-41.2001C35.7282-41.0756 36.1903-41.3799 36.2583-41.7535C36.2855-41.9195 36.435-41.0894 36.2719-40.8265C36.0272-40.453 35.7826-40.204 35.6195-40.1901L35.6059-40.1901C35.6875-40.121 35.7418-40.0241 35.7282-39.9135C35.7146-39.7474 35.5787-39.6368 35.4292-39.6368C35.5651-39.6229 35.6875-39.5953 35.7962-39.5814C36.3127-39.4984 37.332-39.4292 38.2426-39.3877L38.9494-39.3877C38.827-39.4431 38.7455-39.5538 38.7455-39.6783C38.7455-39.8581 38.8814-39.9965 39.0581-39.9965L41.2463-39.9965L41.722-40.6882C41.6404-40.7435 41.5861-40.8404 41.5861-40.9372C41.5861-41.1171 41.722-41.2554 41.8987-41.2554L42.5918-41.2554C42.4287-41.3523 42.3336-41.5044 42.3336-41.712C42.3336-42.0025 42.5646-42.2377 42.8636-42.2377C43.1626-42.2377 43.3937-42.0025 43.3937-41.6981C43.3937-41.4906 43.285-41.3384 43.1355-41.2416L43.8966-41.2416C44.0597-41.2416 44.1956-41.1032 44.1956-40.9234C44.1956-40.8127 44.1276-40.7159 44.0325-40.6605L44.3994-39.9826L46.7494-39.9826C46.9261-39.9826 47.062-39.8443 47.062-39.6644C47.062-39.5261 46.9804-39.4154 46.8581-39.3739C47.6464-39.3739 48.2172-39.3877 48.3667-39.4016C48.9185-39.4431 49.4132-39.6368 49.7938-39.8304C49.9297-39.9273 50.0887-40.038 50.2641-40.1486C50.8213-40.4945 51.528-40.8819 52.2538-40.9649C52.3354-40.9787 52.4196-40.9787 52.5256-40.9787C52.8382-40.9787 53.2324-40.9372 53.5994-40.7989C53.9663-40.6605 54.3469-40.3977 54.5127-39.9411L54.5005-40.1362Z"/>
  </g>
 </g>
</svg>
